<?xml version="1.0" encoding="utf-8"?>
<!-- Generator: Adobe Illustrator 16.0.0, SVG Export Plug-In . SVG Version: 6.00 Build 0)  -->
<!DOCTYPE svg PUBLIC "-//W3C//DTD SVG 1.1//EN" "http://www.w3.org/Graphics/SVG/1.1/DTD/svg11.dtd">
<svg version="1.1" id="Layer_1" xmlns="http://www.w3.org/2000/svg" xmlns:xlink="http://www.w3.org/1999/xlink" x="0px" y="0px"
	 width="2000px" height="1354.167px" viewBox="0 0 2000 1354.167" enable-background="new 0 0 2000 1354.167" xml:space="preserve">
<g>
	<g>
		<path fill="#666666" d="M494.058,108.806c-72.875,33.238-154.067,194.195-154.067,194.195s-49.913-9.234-67.882-25.856
			c-17.97-16.611,27.953-61.55-82.522-61.55c-110.472,0-115.8,59.089,0,94.793c115.803,35.7,115.803,52.934,115.803,52.934
			c-127.783,0-176.363,65.557-200.655,176.348c-24.016,109.545-46.918,271.757,35.604,348.086
			c-25.288-108.338,25.288-171.123,149.073-115.722c-141.752-110.181-165.713-259.146-87.85-278.838
			c77.867-19.695,350.884,146.495,350.884,146.495C465.11,546.745,311.373,445.49,311.373,420.876
			c0-24.627,109.809-247.135,205.644-286.53c95.833-39.393,483.156-46.78,483.156-46.78V50.639
			C764.586,50.639,566.926,75.563,494.058,108.806z"/>
		<path fill="#666666" d="M1895.614,539.669c-24.285-110.791-72.878-176.348-200.651-176.348c0,0,0-17.233,115.792-52.934
			c115.798-35.704,110.48-94.793,0-94.793c-110.478,0-64.55,44.938-82.523,61.55c-17.964,16.622-67.875,25.856-67.875,25.856
			s-81.201-160.958-154.073-194.195c-72.863-33.243-270.522-58.167-506.11-58.167v36.928c0,0,387.317,7.387,483.154,46.78
			c95.828,39.395,205.639,261.903,205.639,286.53c0,24.613-153.732,125.868-241.072,218.814c0,0,273.01-166.19,350.884-146.495
			c77.864,19.692,53.903,168.657-87.844,278.838c123.773-55.401,174.35,7.384,149.074,115.722
			C1942.521,811.426,1919.625,649.214,1895.614,539.669z"/>
		<path fill="#666666" d="M1609.601,255.278c51.927,86.348-609.428,83.427-609.428,83.427s-661.345,2.921-609.434-83.427
			l-30.88,58.876c27.945,25.844,404.728,36.859,640.314,36.859c235.588,0,612.364-11.016,640.308-36.859L1609.601,255.278z"/>
		<g>
			<path fill="#666666" d="M1380.505,648c-96.829,26.768-380.332,23.542-380.332,23.542S716.663,674.768,619.837,648
				c66.886,32.315,202.644,52.63,380.336,52.63C1177.858,700.63,1313.63,680.316,1380.505,648z"/>
			<path fill="#666666" d="M602.2,752.325c-103.817,56.64-202.314,54.184-263.538,25.858c15.634,32.78,103.817,95.4,187,125.566
				c24.812,8.995,59.527,15.479,102.101,20.148l37.475-37.475C581.863,867.441,561.899,818.589,602.2,752.325z"/>
			<path fill="#666666" d="M1337.279,885.916c-16.268,3.857-35.001,6.559-56.255,7.99c-120.942,8.146-251.729,8.588-265.414,8.609
				c-16.658-0.021-175.353-0.464-296.282-8.609c-20.314-1.37-38.331-3.894-54.091-7.482l-37.475,37.475
				c96.341,10.57,232.986,11.844,386.606,11.86c0.281,0,0.57,0,0.861,0c0.638,0,1.27,0,1.909,0
				c151.212-0.017,271.63-1.258,358.571-11.411L1337.279,885.916z"/>
			<path fill="#666666" d="M1474.679,903.75c83.18-30.166,171.364-92.786,187.002-125.566
				c-61.234,28.325-159.722,30.781-263.538-25.858c39.948,65.684,20.679,114.259-60.863,133.591l38.432,38.432
				C1415.965,919.646,1449.06,913.04,1474.679,903.75z"/>
		</g>
		<path fill="#666666" d="M1045.086,619.146c0,8.552-20.098,15.464-44.913,15.464c-24.806,0-44.926-6.912-44.926-15.464
			c0-8.547,20.12-15.475,44.926-15.475C1024.988,603.671,1045.086,610.599,1045.086,619.146z"/>
	</g>
	<path fill="#37AAA4" stroke="#666666" stroke-width="2" stroke-miterlimit="10" d="M1278,832.834
		c0,6.765-5.483,12.249-12.248,12.249H735.248c-6.765,0-12.248-5.484-12.248-12.249v-77.502c0-6.765,5.483-12.249,12.248-12.249
		h530.504c6.765,0,12.248,5.484,12.248,12.249V832.834z"/>
	<circle fill="#666666" cx="739.128" cy="757.542" r="5.869"/>
	<circle fill="#666666" cx="739.128" cy="833.074" r="5.869"/>
	<circle fill="#666666" cx="1263.769" cy="757.542" r="5.869"/>
	<circle fill="#666666" cx="1263.769" cy="833.074" r="5.869"/>
	<polygon opacity="0.5" fill="#5C7F7D" points="1271.639,848.083 732.747,848.083 321.11,1303.083 1683.276,1303.083 	"/>
	
		<line fill="none" stroke="#666666" stroke-width="3" stroke-miterlimit="10" x1="734.791" y1="846.088" x2="321.11" y2="1303.362"/>
	
		<line fill="none" stroke="#666666" stroke-width="3" stroke-miterlimit="10" x1="1683.276" y1="1303.362" x2="1268.872" y2="845.131"/>
</g>
</svg>
