<?xml version="1.0" encoding="utf-8"?>
<!-- Generator: Adobe Illustrator 16.0.0, SVG Export Plug-In . SVG Version: 6.00 Build 0)  -->
<!DOCTYPE svg PUBLIC "-//W3C//DTD SVG 1.1//EN" "http://www.w3.org/Graphics/SVG/1.1/DTD/svg11.dtd">
<svg version="1.1" id="Layer_1" xmlns="http://www.w3.org/2000/svg" xmlns:xlink="http://www.w3.org/1999/xlink" x="0px" y="0px"
	 width="937.453px" height="841.458px" viewBox="0 0 937.453 841.458" enable-background="new 0 0 937.453 841.458"
	 xml:space="preserve">
<g>
	<g id="XMLID_1685_">
		<g id="XMLID_1734_" opacity="0.5">
			<path id="XMLID_1742_" fill="#808080" d="M546.25,407.776h-3.479c0.02-1.292,0.06-2.538,0.06-3.869
				c0-46.968-12.102-70.697-12.102-70.697s-2.34-1.067-7.204-2.794l0,0c-8.503-50.436-48.591-131.276-81.038-164.417
				c0,0-44.168-16.34-154.235-16.34c-110.065,0-154.229,16.34-154.229,16.34C101.574,199.14,61.48,279.98,52.98,330.416
				c0.007,0,0.017-0.007,0.024-0.007c-4.882,1.734-7.229,2.801-7.229,2.801s-12.104,23.729-12.104,70.697
				c0,1.332,0.042,2.577,0.062,3.869h-3.48c-1.931,0-3.783,0.778-5.138,2.155c-1.357,1.371-2.103,3.236-2.072,5.168
				c0.411,27.993,7.5,57.469,20.907,69.102c1.552,1.345,4.547,2.801,8.835,4.317v67.724c0,4.503,3.685,8.147,8.229,8.147h71.194
				c4.548,0,8.233-3.645,8.233-8.147v-51.8c40.442,4.476,91.152,7.666,147.809,7.666c56.659,0,107.368-3.19,147.815-7.666v51.8
				c0,4.503,3.684,8.147,8.231,8.147h71.191c4.548,0,8.233-3.645,8.233-8.147v-67.724c4.283-1.517,7.276-2.973,8.832-4.317
				c13.406-11.633,20.498-41.108,20.906-69.102c0.033-1.932-0.719-3.797-2.069-5.168
				C550.034,408.554,548.182,407.776,546.25,407.776z M67.576,325.782c1.127-0.329,2.293-0.658,3.514-0.995
				C69.87,325.124,68.704,325.453,67.576,325.782z M72.54,324.398c1.055-0.291,2.139-0.58,3.263-0.871
				C74.678,323.818,73.594,324.108,72.54,324.398z M77.437,323.099c1.16-0.296,2.359-0.6,3.589-0.902
				C79.796,322.499,78.597,322.803,77.437,323.099z M82.697,321.788c1.588-0.389,3.229-0.777,4.926-1.173
				C85.926,321.01,84.285,321.399,82.697,321.788z M88.27,320.462c1.964-0.447,4.008-0.902,6.117-1.357
				C92.277,319.561,90.234,320.015,88.27,320.462z M95.823,318.802c1.641-0.349,3.319-0.706,5.045-1.054
				C99.142,318.096,97.464,318.453,95.823,318.802z M102.995,317.326c1.618-0.323,3.275-0.646,4.972-0.968
				C106.273,316.68,104.612,317.002,102.995,317.326z M110.192,315.941c1.878-0.349,3.809-0.699,5.78-1.048
				C114.005,315.243,112.07,315.592,110.192,315.941z M117.742,314.583c2.61-0.455,5.29-0.903,8.057-1.345
				C123.032,313.681,120.353,314.129,117.742,314.583z M126.68,313.101c2.441-0.382,4.946-0.771,7.514-1.146
				C131.626,312.33,129.121,312.719,126.68,313.101z M59.767,328.142c0.662-0.211,1.361-0.428,2.072-0.652
				C61.128,327.713,60.428,327.931,59.767,328.142z M63.167,327.081c1.173-0.356,2.399-0.725,3.7-1.101
				C65.566,326.356,64.34,326.725,63.167,327.081z M136.784,311.578c2.083-0.296,4.196-0.593,6.357-0.89
				C140.982,310.985,138.863,311.281,136.784,311.578z M505.438,324.793c1.187,0.33,2.32,0.646,3.415,0.962
				C507.758,325.439,506.624,325.124,505.438,324.793z M509.643,325.98c1.293,0.376,2.505,0.738,3.672,1.094
				C512.147,326.718,510.936,326.356,509.643,325.98z M514.731,327.515c0.679,0.205,1.345,0.416,1.978,0.613
				C516.076,327.931,515.41,327.72,514.731,327.515z M442.314,311.954c2.551,0.375,5.049,0.758,7.48,1.146
				C447.363,312.712,444.865,312.33,442.314,311.954z M450.712,313.239c2.761,0.442,5.437,0.89,8.046,1.345
				C456.149,314.129,453.474,313.681,450.712,313.239z M460.559,314.899c1.958,0.343,3.876,0.693,5.747,1.036
				C464.435,315.592,462.517,315.243,460.559,314.899z M468.553,316.363c1.681,0.317,3.335,0.639,4.944,0.956
				C471.888,317.002,470.234,316.68,468.553,316.363z M475.646,317.748c1.712,0.349,3.38,0.698,5.009,1.048
				C479.026,318.446,477.359,318.096,475.646,317.748z M482.126,319.105c2.102,0.456,4.144,0.91,6.102,1.357
				C486.27,320.015,484.228,319.561,482.126,319.105z M488.927,320.627c1.681,0.39,3.302,0.771,4.871,1.154
				C492.229,321.399,490.608,321.017,488.927,320.627z M495.506,322.203c1.205,0.304,2.386,0.594,3.531,0.891
				C497.898,322.803,496.711,322.499,495.506,322.203z M500.739,323.535c1.094,0.284,2.147,0.566,3.177,0.85
				C502.887,324.101,501.833,323.818,500.739,323.535z M433.363,310.688c2.162,0.297,4.278,0.593,6.361,0.89
				C437.641,311.281,435.525,310.985,433.363,310.688z M400.295,306.885c3.592,0.343,7.116,0.699,10.546,1.068
				C407.411,307.584,403.888,307.228,400.295,306.885z M389.347,305.903c2.729,0.23,5.409,0.467,8.051,0.718
				C394.756,306.371,392.076,306.133,389.347,305.903z M288.251,301.922L288.251,301.922c5.01,0,9.908,0.033,14.742,0.086
				C298.159,301.955,293.261,301.922,288.251,301.922z M307.538,302.067c3.322,0.046,6.61,0.099,9.85,0.171
				C314.148,302.166,310.857,302.114,307.538,302.067z M322.326,302.351c3.094,0.079,6.143,0.165,9.154,0.263
				C328.469,302.515,325.42,302.43,322.326,302.351z M336.087,302.759c3.534,0.126,7,0.271,10.421,0.422
				C343.087,303.03,339.618,302.885,336.087,302.759z M349.076,303.292c4.274,0.198,8.463,0.416,12.572,0.653
				C357.539,303.708,353.35,303.49,349.076,303.292z M364.647,304.129c3.084,0.185,6.136,0.376,9.125,0.587
				C370.784,304.506,367.731,304.314,364.647,304.129z M377.695,304.994c2.652,0.197,5.269,0.396,7.844,0.6
				C382.964,305.39,380.347,305.191,377.695,304.994z M179.119,306.614c2.636-0.244,5.309-0.481,8.034-0.711
				C184.428,306.133,181.755,306.371,179.119,306.614z M190.973,305.594c2.571-0.204,5.181-0.402,7.827-0.6
				C196.154,305.191,193.541,305.39,190.973,305.594z M202.738,304.716c2.98-0.21,6.021-0.402,9.1-0.587
				C208.763,304.314,205.718,304.506,202.738,304.716z M214.862,303.946c4.106-0.237,8.292-0.456,12.563-0.653
				C223.155,303.49,218.969,303.708,214.862,303.946z M230.013,303.181c3.417-0.151,6.878-0.296,10.401-0.422
				C236.891,302.885,233.43,303.03,230.013,303.181z M245.031,302.614c3.008-0.099,6.054-0.184,9.142-0.263
				C251.085,302.43,248.04,302.515,245.031,302.614z M259.122,302.238c3.234-0.072,6.522-0.125,9.838-0.171
				C265.644,302.114,262.356,302.166,259.122,302.238z M273.511,302.008c4.835-0.054,9.732-0.086,14.738-0.086
				C283.243,301.922,278.346,301.955,273.511,302.008z M165.67,307.953c3.428-0.369,6.947-0.725,10.536-1.068
				C172.617,307.228,169.094,307.584,165.67,307.953z M411.125,307.986c3.295,0.356,6.506,0.726,9.649,1.101
				C417.631,308.711,414.42,308.342,411.125,307.986z M423.556,309.423c2.307,0.283,4.574,0.574,6.795,0.863
				C428.13,309.997,425.863,309.706,423.556,309.423z M521.033,329.552c0.44,0.151,0.843,0.291,1.252,0.429
				C521.876,329.843,521.474,329.704,521.033,329.552z M518.112,328.583c0.554,0.179,1.088,0.356,1.602,0.527
				C519.2,328.939,518.666,328.762,518.112,328.583z M165.35,307.986c-3.282,0.356-6.482,0.726-9.616,1.101
				C158.871,308.711,162.064,308.342,165.35,307.986z M152.938,309.43c-2.3,0.284-4.567,0.567-6.789,0.856
				C148.371,309.997,150.639,309.713,152.938,309.43z M55.499,329.545c-0.476,0.159-0.919,0.311-1.361,0.468
				C54.579,329.855,55.021,329.704,55.499,329.545z M58.428,328.57c-0.583,0.192-1.143,0.376-1.685,0.555
				C57.285,328.946,57.845,328.762,58.428,328.57z"/>
			<path id="XMLID_79_" fill="#808080" d="M850.637,196.16c-7.507-10.164-14.197-16.075-17.314-24.374
				c27.459-3.618,49.381-22.904,54.628-47.713c5.523-0.072,9.973-5.306,9.973-11.758c0-6.486-4.503-11.752-10.072-11.765
				c-0.323-1.457-0.731-2.88-1.165-4.291c0.349-0.402,0.61-0.706,0.79-0.909c0.047-0.007,0.165-0.02,0.165-0.02
				c-0.007-0.053-0.007-0.106-0.007-0.158c0.025-0.039,0.112-0.132,0.112-0.132s-0.093-0.02-0.119-0.025
				c-1.503-44.959-3.177-56.46-9.287-62.676c-8.066-8.2-34.557-12.478-54.338-12.478c-19.773,0-46.271,4.278-54.331,12.478
				c-6.116,6.215-7.784,17.716-9.286,62.676c-0.033,0.006-0.118,0.025-0.118,0.025s0.079,0.093,0.111,0.132
				c0,0.052,0,0.105-0.006,0.158c0,0,0.117,0.013,0.164,0.02c0.172,0.203,0.441,0.507,0.79,0.903
				c-0.44,1.417-0.85,2.841-1.173,4.297c-5.569,0.02-10.064,5.285-10.064,11.765c0,6.452,4.442,11.673,9.966,11.758
				c5.24,24.77,27.11,44.036,54.503,47.694c-3.093,8.304-9.67,14.224-17.184,24.393c-4.105,1.458-7.949,3.013-11.626,4.621v-0.007
				c-0.476,0.204-0.891,0.442-1.358,0.652c-9.169,4.139-17.098,8.753-23.801,14.045c-30.841,24.375-18.602,52.52-69.894,58.346
				c-13.287,1.516-32.361,3.098-47.996,5.042l3.565,28.678c19.477-2.419,36.344-2.992,50.093-4.706
				c42.592-5.313,61.7-35,64.937-40.603v122.972h0.04l5.786,154.945h40.332l6.649-135.687c0,0,1.813,0.692,9.9,0.692
				c8.096,0,9.913-0.692,9.913-0.692l6.645,135.687h40.33l5.788-154.945h0.033V262.229c3.969,6.868,11.079,16.544,11.079,122.972
				h5.035c0.316,10.4,2.927,20.531,8.873,20.498c6.533-0.045,10.539-8.113,10.491-20.498h4.504
				C926.693,270.785,923.59,222.11,850.637,196.16z"/>
			<path id="XMLID_1737_" fill="#808080" d="M645.646,302.542l-2.393-19.213c-12.292,1.482-19.807,6.453-19.042,12.945
				c0.053,0.415,0.251,0.765,0.396,1.14l-24.301-12.22l-2.097-6.249c0,0-0.363-0.929-1.714-1.403l-9.867-3.289
				c-0.447-0.118-24.018,3.269-24.018,3.269c-1.386,0.105-2.427,1.305-2.327,2.696l0.033,0.395
				c-21.916,1.101-31.77,4.521-45.861,11.884l3.4,5.991c12.768-6.446,25.264-9.399,43.106-9.063l0.021,0.264
				c0.336,4.667,9.359,21.481,11.383,23.569l-0.008,0.021l0.094,0.065c0.751,0.757,19.99,16.926,32.625,25.125
				c2.143,1.391,4.957,1.174,6.855-0.527c6.689-5.991,11.791-12.701,14.435-21.316c0.039-0.125,0.039-0.244,0.06-0.369l1.463-2.913
				l2.854,1.437l-1.496,2.973l5.557,2.794l7.184-14.283l-5.556-2.794l-1.496,2.979l-2.853-1.438l-2.117,4.199l3.447-6.861
				C637.038,302.917,641.322,302.951,645.646,302.542z M605.269,331.326l-24.105-18.198c-2.491-1.886-2.991-5.432-1.112-7.936
				c0.125-0.165,0.362-0.448,0.54-0.666c3.031,0.27,8.166,1.457,14.217,5.807c7.811,5.622,13.209,15.186,15.496,19.793
				c-0.236,0.27-0.402,0.586-0.646,0.843C608.497,332.188,606.612,332.34,605.269,331.326z M616.525,320.055
				c-0.93,2.234-2.069,4.344-3.367,6.347c-3.145-4.931-10.204-15.199-17.263-19.886c-5.05-3.355-9.696-4.646-12.569-5.154
				c2.505-2.616,6.393-3.362,9.662-1.721l19.608,9.861C616.474,311.446,618.187,316.054,616.525,320.055z"/>
			<path id="XMLID_75_" fill="#808080" d="M739.629,559.564c-0.211,1.477,0.448,4.707,19.069,4.707
				c18.224,0,24.432-5.57,24.432-5.57v5.688h16.537v-24.217h-25.961C767.173,557.547,741,549.902,739.629,559.564z"/>
			<path id="XMLID_74_" fill="#808080" d="M874.306,540.172h-25.969v24.217h16.544v-5.688c0,0,6.208,5.57,24.434,5.57
				c18.613,0,19.278-3.23,19.069-4.707C907.012,549.902,880.839,557.547,874.306,540.172z"/>
		</g>
		<g id="XMLID_1686_">
			<path id="XMLID_73_" fill="#32CCC9" d="M531.361,390.409c0-46.969-12.108-70.697-12.108-70.697s-68.423-31.288-242.476-31.288
				c-174.054,0-242.473,31.288-242.473,31.288S22.2,343.44,22.2,390.409c0,46.975,12.105,70.703,12.105,70.703
				s68.419,31.289,242.473,31.289c174.053,0,242.476-31.289,242.476-31.289S531.361,437.384,531.361,390.409z"/>
			<path id="XMLID_72_" fill="#32CCC9" d="M512.048,316.917c-8.494-50.436-48.589-131.277-81.038-164.418
				c0,0-44.164-16.339-154.23-16.339c-110.069,0-154.233,16.339-154.233,16.339c-32.448,33.141-72.54,113.982-81.042,164.418
				c21.573-7.666,93.246-28.494,235.275-28.494C418.804,288.424,490.476,309.252,512.048,316.917z"/>
			<path id="XMLID_71_" fill="#FFFFFF" d="M276.78,283.829c124.323,0,195.385,15.509,226.595,24.685
				c-14.62-48.887-40.134-110.442-67.145-138.316c0,0-50.498-16.34-159.45-16.34c-108.955,0-159.45,16.34-159.45,16.34
				c-27.011,27.875-52.532,89.429-67.148,138.316C81.395,299.338,152.455,283.829,276.78,283.829z"/>
			<path id="XMLID_70_" fill="#1E2E40" d="M41.311,463.834v78.91c0,4.5,3.685,8.146,8.232,8.146h71.194
				c4.545,0,8.229-3.646,8.229-8.146v-59.493C81.345,476.627,53.32,468.119,41.311,463.834z"/>
			<path id="XMLID_69_" fill="#1E2E40" d="M512.246,463.834v78.91c0,4.5-3.685,8.146-8.232,8.146h-71.19
				c-4.548,0-8.233-3.646-8.233-8.146v-59.493C472.211,476.627,500.237,468.119,512.246,463.834z"/>
			<path id="XMLID_68_" fill="#FFC90D" d="M424.59,377.733c-6.663-12.668,53.876-52.742,70.671-51.76
				c11.738,0.686,15.771,9.438,18.343,24.401c2.577,14.961,2.036,27.319-7.131,30.893C496.21,385.261,429.817,387.68,424.59,377.733
				z"/>
			<path id="XMLID_67_" fill="#FFC90D" d="M128.967,377.733c6.664-12.668-53.876-52.742-70.667-51.76
				c-11.738,0.686-15.776,9.438-18.35,24.401c-2.578,14.961-2.037,27.319,7.135,30.893
				C57.343,385.261,123.736,387.68,128.967,377.733z"/>
			<path id="XMLID_66_" fill="#1E2E40" d="M541.993,401.601c0.025-1.932-0.718-3.797-2.076-5.167
				c-1.358-1.378-3.211-2.155-5.143-2.155H276.78H18.779c-1.931,0-3.78,0.776-5.138,2.155c-1.354,1.371-2.102,3.236-2.072,5.167
				c0.412,27.992,7.5,57.468,20.91,69.102c12.177,10.565,112.152,27.907,244.302,27.907c132.147,0,232.118-17.342,244.299-27.907
				C534.485,459.069,541.577,429.592,541.993,401.601z"/>
			<path id="XMLID_65_" fill="#FFFFFF" d="M381.105,357.241c-7.866-7.863-35.819-27.472-104.325-27.472
				c-68.511,0-96.461,19.609-104.332,27.472c-5.355,5.359-8.246,14.349-9.689,20.585c-0.389,1.674,0.01,3.434,1.081,4.779
				c1.068,1.345,2.697,2.128,4.417,2.128H276.78H385.3c1.72,0,3.345-0.784,4.417-2.128c1.067-1.345,1.469-3.105,1.081-4.779
				C389.354,371.59,386.467,362.6,381.105,357.241z"/>
			<path id="XMLID_64_" fill="#1E2E40" d="M168.257,380.561c-0.456,0-0.874-0.204-1.154-0.554c-0.276-0.356-0.379-0.811-0.276-1.252
				c1.938-8.371,4.983-14.969,8.571-18.561c4.387-4.383,29.875-26.247,101.379-26.247c71.517,0,96.996,21.864,101.378,26.247
				c3.585,3.586,6.634,10.177,8.582,18.573c0.099,0.423-0.013,0.89-0.29,1.239c-0.277,0.35-0.695,0.554-1.144,0.554H168.257z"/>
			<path id="XMLID_63_" fill="#1E2E40" d="M186.188,465.369v-37.845c0-2.512,2.033-4.542,4.541-4.542h172.103
				c2.507,0,4.541,2.03,4.541,4.534v37.853c0,2.505-2.033,4.543-4.541,4.543H190.726
				C188.221,469.912,186.188,467.881,186.188,465.369z"/>
			<path id="XMLID_62_" fill="#FFFFFF" d="M361.015,465.739H192.542c-1.203,0-2.178-0.976-2.178-2.182v-34.222
				c0-1.206,0.975-2.182,2.178-2.182h168.473c1.207,0,2.182,0.976,2.182,2.182v34.222
				C363.197,464.763,362.222,465.739,361.015,465.739z"/>
			<g id="XMLID_1702_">
				<path id="XMLID_61_" fill="#1E2E40" d="M568.885,287.526c0,0,7.243-0.019,15.542,5.491c9.457,6.282,18.949,22.641,18.949,22.641
					l-3.31,3.619c0,0-6.183-14.85-16.728-22.443c-9.755-7.013-17.156-5.807-17.156-5.807L568.885,287.526z"/>
				<polygon id="XMLID_60_" fill="#1E2E40" points="619.274,301.283 616.413,299.846 620.605,291.515 623.459,292.951 				"/>
				
					<rect id="XMLID_59_" x="621.032" y="290.517" transform="matrix(0.8934 0.4493 -0.4493 0.8934 200.6953 -248.6224)" fill="#1E2E40" width="6.221" height="15.989"/>
				<path id="XMLID_58_" fill="#FFFFFF" d="M549.117,267.095c-22.12,1.081-31.98,4.508-46.137,11.902l3.4,5.992
					c12.839-6.479,25.389-9.438,43.382-9.063L549.117,267.095z"/>
				<path id="XMLID_1703_" fill="#F7AE2A" d="M622.147,288.442l-33.318-16.748l-2.095-6.248c0,0-0.363-0.93-1.715-1.404l-9.867-3.29
					c-0.447-0.118-24.018,3.27-24.018,3.27c-1.385,0.106-2.426,1.306-2.327,2.696l0.698,9.472
					c0.338,4.667,9.359,21.481,11.391,23.57l-0.013,0.02l0.091,0.066c0.752,0.758,19.998,16.926,32.626,25.125
					c2.144,1.392,4.957,1.173,6.862-0.527c6.684-5.992,11.784-12.702,14.428-21.316c0.039-0.125,0.039-0.244,0.06-0.37
					L622.147,288.442z M598.184,317.471c-1.16,1.22-3.046,1.371-4.391,0.356l-24.098-18.198c-2.498-1.885-2.999-5.431-1.113-7.936
					c0.553-0.738,1.713-2.123,2.946-3.559c2.478-2.88,6.59-3.698,9.984-1.99l19.616,9.86c3.868,1.944,5.582,6.551,3.921,10.552
					C603.384,310.576,601.182,314.319,598.184,317.471z"/>
			</g>
			<path id="XMLID_55_" fill="#32CCC9" d="M839.162,182.661c0,0-8.536,4.476-26.63,4.476c-18.098,0-26.634-4.476-26.634-4.476
				c-15.034,5.346-27.096,11.66-36.785,19.313c-30.84,24.375-18.594,52.518-69.893,58.345c-13.288,1.516-32.362,3.098-47.997,5.042
				l3.573,28.678c19.471-2.419,36.344-2.993,50.085-4.706c42.593-5.312,61.701-34.999,64.944-40.602v122.972h62.706h62.711V248.731
				c3.967,6.869,11.079,16.544,11.079,122.972h28.9C915.223,257.287,912.112,208.61,839.162,182.661z"/>
			<path id="XMLID_54_" fill="#FFDFB9" d="M820.82,155.004h-8.359h-8.364c-2.433,10.164-9.734,16.202-18.198,27.657
				c8.141,4.918,20.063,8.45,26.563,8.391c6.493,0.06,18.56-3.473,26.701-8.391C830.705,171.206,823.252,165.168,820.82,155.004z"/>
			<path id="XMLID_53_" fill="#FFDFB9" d="M886.447,98.815c0-6.485-4.502-11.752-10.071-11.765
				c-6.077-27.269-32.349-47.786-63.844-47.786c-31.491,0-57.771,20.518-63.854,47.786c-5.571,0.019-10.064,5.285-10.064,11.765
				c0,6.453,4.442,11.672,9.966,11.759c5.833,27.563,32.237,48.379,63.952,48.379c31.725,0,58.115-20.815,63.943-48.379
				C881.999,110.502,886.447,105.268,886.447,98.815z"/>
			<path id="XMLID_52_" fill="#FFDFB9" d="M631.784,269.83c-12.299,1.483-19.813,6.453-19.049,12.945
				c0.698,5.899,11.08,7.244,21.435,6.268L631.784,269.83z"/>
			<path id="XMLID_51_" fill="#FFDFB9" d="M910.716,371.703c0.046,12.385-3.954,20.453-10.492,20.498
				c-5.946,0.034-8.557-10.097-8.866-20.498H910.716z"/>
			<path id="XMLID_50_" fill="#1E2E40" d="M788.199,526.673h-25.97c-6.531,17.376-32.705,9.729-34.076,19.393
				c-0.212,1.477,0.455,4.705,19.068,4.705c18.224,0,24.434-5.568,24.434-5.568v5.688h16.544V526.673z"/>
			<path id="XMLID_49_" fill="#1E2E40" d="M836.867,526.673h25.964c6.53,17.376,32.705,9.729,34.076,19.393
				c0.212,1.477-0.446,4.705-19.067,4.705c-18.227,0-24.435-5.568-24.435-5.568v5.688h-16.538V526.673z"/>
			<path id="XMLID_48_" fill="#1E2E40" d="M749.859,255.118v116.584l5.786,154.945h40.33l6.651-135.686c0,0,1.813,0.692,9.905,0.692
				c8.096,0,9.908-0.692,9.908-0.692l6.644,135.686h40.331l5.786-154.945V255.118H749.859z"/>
			<path id="XMLID_47_" fill="#1E2E40" d="M774.272,255.118v-67.844c-3.217,1.411-6.269,2.895-9.175,4.43v63.414H774.272z"/>
			<path id="XMLID_46_" fill="#1E2E40" d="M850.644,255.118v-67.844c3.225,1.411,6.269,2.895,9.176,4.43v63.414H850.644z"/>
			<path id="XMLID_45_" fill="#32CCC9" d="M866.864,18.837c-8.061-8.199-34.558-12.477-54.332-12.477
				c-19.778,0-46.268,4.278-54.336,12.477c-6.13,6.236-7.79,17.764-9.294,62.992c0,0,33.503,3.678,63.63,3.678
				c30.124,0,63.632-3.678,63.632-3.678C874.662,36.601,872.995,25.073,866.864,18.837z"/>
			<path id="XMLID_44_" fill="#1E2E40" d="M812.532,75.621c-35.109,0-63.741,5.919-63.741,5.919s6.268,7.31,16.615,17.836
				c6.098,6.195,17.54-1.688,47.114-1.688v-0.046l0.02,0.046c29.575,0,41.019,7.883,47.113,1.688
				c10.348-10.526,16.617-17.836,16.617-17.836S847.638,75.621,812.532,75.621z"/>
			<g id="XMLID_1687_">
				<path id="XMLID_43_" fill="#1E2E40" d="M829.156,46.131c-3.164-10.724-15.819-30.167-16.624-30.167
					c-0.809,0-13.464,19.444-16.628,30.167c-3.276,11.08,6.881,20.637,16.628,20.637C822.282,66.769,832.432,57.211,829.156,46.131z
					"/>
				<path id="XMLID_42_" fill="#FFFFFF" d="M803.028,35.824c-1.878,3.704-3.479,7.342-4.355,10.308
					c-1.713,5.794,1.113,11.502,5.404,14.679C800.247,52.67,799.865,45.406,803.028,35.824z"/>
			</g>
		</g>
	</g>
	<g id="XMLID_1_">
		<path id="XMLID_2_" fill="#32CCC9" d="M240.506,667.988h42.631v10.703h-28.976v58.965h27.407v10.98h-27.407v81.757h-13.656
			V667.988z"/>
		<path id="XMLID_5_" fill="#32CCC9" d="M346.255,667.988h13.749v120.695c0,15.26-1.938,26.346-5.814,33.268
			c-3.875,6.92-11.412,10.381-22.607,10.381c-11.198,0-18.778-3.473-22.746-10.429c-3.968-6.953-5.952-18.025-5.952-33.22V667.988
			h13.749v120.235c0,11.258,0.492,18.766,1.477,22.517c1.846,6.828,6.15,10.242,12.919,10.242c5.536,0,9.458-1.583,11.765-4.753
			c2.308-3.169,3.461-12.471,3.461-27.913V667.988z"/>
		<path id="XMLID_7_" fill="#32CCC9" d="M388.241,667.988h42.908v10.703h-29.16v63.487h27.406v11.165h-27.406v66.16h28.883v10.89
			h-42.631V667.988z"/>
		<path id="XMLID_9_" fill="#32CCC9" d="M453.664,667.988h13.749v151.516h28.79v10.89h-42.539V667.988z"/>
		<path id="XMLID_22_" fill="#32CCC9" d="M514.289,667.988h13.75v162.405h-13.75V667.988z"/>
		<path id="XMLID_24_" fill="#32CCC9" d="M607.212,667.988h11.997v162.405h-10.704l-37.373-122.357l0.923,43.923v78.435h-12.919
			V667.988h9.597l39.864,125.587l-1.385-55.919V667.988z"/>
		<path id="XMLID_26_" fill="#32CCC9" d="M646.337,715.51c0-16.794,1.661-28.481,4.983-35.066
			c4.799-9.655,12.701-14.487,23.715-14.487c7.072,0,12.49,1.385,16.24,4.153c3.752,2.769,6.183,5.78,7.291,9.042
			c2.089,6.092,3.335,11.891,3.737,17.395c0.401,5.506,0.599,11.766,0.599,18.779v13.564h-14.026v-25.1
			c0-9.229-0.922-15.963-2.768-20.209c-1.845-4.244-5.523-6.366-11.027-6.366c-5.503,0-9.38,2.755-11.626,8.259
			c-2.248,5.503-3.368,15.027-3.368,28.559v66.254c0,15.319,0.981,25.93,2.952,31.837c1.971,5.904,5.847,8.858,11.627,8.858
			s9.655-2.987,11.627-8.951c1.971-5.966,2.952-16.485,2.952-31.559v-20.484h-13.933v-11.722h27.59v82.127h-9.043l-1.476-9.411
			c-2.273,3.815-4.95,6.644-8.028,8.49c-3.078,1.844-7.046,2.767-11.904,2.767c-9.102,0-15.733-3.98-19.885-11.949
			c-4.153-7.969-6.229-20.962-6.229-38.987V715.51z"/>
	</g>
</g>
</svg>
