<?xml version="1.0" encoding="utf-8"?>
<!-- Generator: Adobe Illustrator 16.0.0, SVG Export Plug-In . SVG Version: 6.00 Build 0)  -->
<!DOCTYPE svg PUBLIC "-//W3C//DTD SVG 1.1//EN" "http://www.w3.org/Graphics/SVG/1.1/DTD/svg11.dtd">
<svg version="1.1" id="Layer_1" xmlns="http://www.w3.org/2000/svg" xmlns:xlink="http://www.w3.org/1999/xlink" x="0px" y="0px"
	 width="944.828px" height="378.161px" viewBox="0 0 944.828 378.161" enable-background="new 0 0 944.828 378.161"
	 xml:space="preserve">
<g>
	<g>
		<g>
			<g>
				<g>
					<g>
						<rect x="57.04" y="168.433" fill="#FF735D" width="821.152" height="120.49"/>
					</g>
				</g>
			</g>
			<g opacity="0.5">
				<g>
					<g>
						<rect x="57.04" y="168.433" width="821.152" height="120.49"/>
					</g>
				</g>
			</g>
		</g>
		<g>
			<g>
				<g>
					<g>
						<g>
							<g>
								<g>
									<g>
										<path fill="#1A2E35" d="M88.206,286.978c-0.632,43.722,34.304,79.681,78.031,80.311
											c43.722,0.632,79.683-34.306,80.314-78.027c0.627-43.728-34.308-79.683-78.031-80.314
											C124.793,208.317,88.837,243.25,88.206,286.978z"/>
									</g>
								</g>
							</g>
						</g>
					</g>
				</g>
			</g>
			<g>
				<g>
					<g>
						<g>
							<g>
								<g>
									<g>
										<path fill="#1A2E35" d="M88.217,286.77c0,0.07-0.011,0.14-0.011,0.208c-0.632,43.722,34.304,79.681,78.031,80.311
											c43.722,0.632,79.683-34.306,80.314-78.027c0-0.068-0.012-0.138-0.008-0.205L88.217,286.77z"/>
									</g>
								</g>
							</g>
						</g>
					</g>
				</g>
			</g>
			<g>
				<g>
					<g>
						<g>
							<g>
								<g>
									<g>
										<path fill="#FAFAFA" d="M111.794,287.318c-0.444,30.697,24.082,55.942,54.779,56.386
											c30.701,0.44,55.946-24.085,56.39-54.781c0.44-30.702-24.086-55.947-54.783-56.386
											C137.479,232.091,112.239,256.617,111.794,287.318z"/>
									</g>
								</g>
							</g>
						</g>
					</g>
				</g>
			</g>
			<g>
				<g>
					<g>
						<g>
							<g>
								<g>
									<g>
										<path fill="#E1E1E1" d="M168.18,232.537c-30.701-0.445-55.941,24.08-56.386,54.781l111.168,1.604
											C223.403,258.22,198.876,232.975,168.18,232.537z"/>
									</g>
								</g>
							</g>
						</g>
					</g>
				</g>
			</g>
			<g>
				<g>
					<g>
						<g>
							<g>
								<g>
									<g>
										<path fill="#1A2E35" d="M133.52,287.626c-0.271,18.701,14.667,34.08,33.367,34.352
											c18.704,0.269,34.078-14.671,34.351-33.37c0.268-18.699-14.671-34.079-33.372-34.351
											C149.167,253.99,133.788,268.928,133.52,287.626z"/>
									</g>
								</g>
							</g>
						</g>
					</g>
				</g>
			</g>
		</g>
		<g>
			<g>
				<g>
					<g>
						<g>
							<g>
								<g>
									<g>
										<path fill="#1A2E35" d="M693.691,286.978c-0.626,43.722,34.307,79.681,78.028,80.311
											c43.727,0.632,79.687-34.306,80.313-78.027c0.636-43.728-34.3-79.683-78.028-80.314
											C730.281,208.317,694.319,243.25,693.691,286.978z"/>
									</g>
								</g>
							</g>
						</g>
					</g>
				</g>
			</g>
			<g>
				<g>
					<g>
						<g>
							<g>
								<g>
									<g>
										<path fill="#1A2E35" d="M693.707,286.77c0,0.07-0.016,0.14-0.016,0.208c-0.626,43.722,34.307,79.681,78.028,80.311
											c43.727,0.632,79.687-34.306,80.313-78.027c0-0.068-0.008-0.138-0.008-0.205L693.707,286.77z"/>
									</g>
								</g>
							</g>
						</g>
					</g>
				</g>
			</g>
			<g>
				<g>
					<g>
						<g>
							<g>
								<g>
									<g>
										<path fill="#FAFAFA" d="M717.28,287.318c-0.442,30.697,24.087,55.942,54.783,56.386
											c30.696,0.44,55.946-24.085,56.381-54.781c0.444-30.702-24.077-55.947-54.781-56.386
											C742.964,232.091,717.724,256.617,717.28,287.318z"/>
									</g>
								</g>
							</g>
						</g>
					</g>
				</g>
			</g>
			<g>
				<g>
					<g>
						<g>
							<g>
								<g>
									<g>
										<path fill="#E1E1E1" d="M773.663,232.537c-30.698-0.445-55.938,24.08-56.383,54.781l111.164,1.604
											C828.888,258.22,804.367,232.975,773.663,232.537z"/>
									</g>
								</g>
							</g>
						</g>
					</g>
				</g>
			</g>
			<g>
				<g>
					<g>
						<g>
							<g>
								<g>
									<g>
										<path fill="#1A2E35" d="M739.001,287.626c-0.268,18.701,14.675,34.08,33.375,34.352
											c18.699,0.269,34.078-14.671,34.347-33.37c0.267-18.699-14.676-34.079-33.375-34.351
											C754.649,253.99,739.278,268.928,739.001,287.626z"/>
									</g>
								</g>
							</g>
						</g>
					</g>
				</g>
			</g>
		</g>
		<g>
			<g>
				<g>
					<path fill="#FF735D" d="M271.173,100.648c0,0-116.601,8.6-159.814,18.294c-30.46,6.829-89.19,18.62-88.483,55.566l4.659,26.489
						c0,0-21.79,9.946-21.79,35.336c0,25.391-5.322,64.776,45.528,66.353c8.382,0.259,24.301,0,24.301,0
						s-9.763-108.301,89.734-111.471c101.217-3.224,94.496,110.479,94.496,110.479h422.442c0,0-17.34-110.778,91.621-110.936
						c108.962-0.156,92.383,111.658,92.383,111.658s40.085,3.47,58.729-30.217c18.654-33.69,13.804-57.668,13.804-57.668
						l-0.621-21.289c-0.214-7.254-6.005-13.1-13.25-13.379l0,0c0,0,7.284-53.616-3.889-62.896
						c-11.17-9.277-72.411-65.258-72.411-65.258l2.924-1.832c4.882-3.068,4.033-10.433-1.423-12.307
						c-23.244-7.995-69.212-23.813-80.024-27.594c-1.62-0.569-3.299-0.921-5.019-1.055c-6.451-0.493-24.706-1.649-58.227-2.008
						c-40.841-0.436-202.966,0-202.966,0S448.086,11.5,417,25.184C384.315,39.569,271.173,100.648,271.173,100.648z"/>
				</g>
			</g>
		</g>
		<g opacity="0.4">
			<g>
				<g>
					<g>
						<path d="M35.306,233.405c-4.228-0.863-10.711-0.945-13.937,1.919c-2.395,2.133-3.029,5.573-3.394,8.757
							c-0.5,4.369-0.745,8.85,0.294,13.126c1.041,4.273,3.531,8.365,7.399,10.467c3.865,2.098,9.17,1.754,12.177-1.457
							c2.748-2.938,3.064-7.351,2.992-11.366c-0.104-5.712,0.355-10.551-0.696-16.163c-0.199-1.067-0.766-2.422-1.455-3.259
							C37.567,234.073,36.706,233.482,35.306,233.405"/>
					</g>
				</g>
			</g>
		</g>
		<g>
			<g>
				<g>
					<path fill="#FAFAFA" d="M27.535,200.998c12.376,0.022,24.385-0.682,36.734-1.508c1.335-0.087,2.786-0.229,3.764-1.135
						c1.182-1.099,1.278-2.901,1.29-4.512c0.058-6.634-0.271-14.17-5.302-18.493c-3.072-2.644-7.291-3.462-11.328-3.845
						c-9.936-0.934-20.352-0.161-29.816,3.003L27.535,200.998z"/>
				</g>
			</g>
		</g>
		<g>
			<g>
				<g>
					<g>
						<path fill="#1A2E35" d="M284.555,298.306c0,0-0.046-0.359-0.096-1.057c-0.05-0.727-0.119-1.761-0.207-3.105
							c-0.149-2.759-0.371-6.775-0.65-11.947c-0.292-5.185-0.635-11.534-1.381-18.869c-0.761-7.326-1.889-15.677-4.364-24.614
							c-2.479-8.916-6.29-18.427-11.917-27.759c-5.658-9.266-13.087-18.527-23.033-25.691
							c-19.978-14.206-46.956-22.24-75.177-22.583c-28.293-0.337-55.173,8.604-74.646,23.503
							c-9.831,7.297-17.965,15.819-24.235,24.726c-6.316,8.882-10.929,18.014-14.186,26.684c-3.29,8.676-5.011,16.943-5.99,24.227
							c-1.06,7.299-0.903,13.677-0.727,18.851c0.406,5.168,0.86,9.177,1.454,11.847c0.241,1.329,0.424,2.346,0.555,3.061
							c0.119,0.688,0.161,1.048,0.161,1.048s-0.092-0.348-0.241-1.032c-0.146-0.713-0.356-1.726-0.627-3.045
							c-0.643-2.666-1.148-6.68-1.6-11.861c-0.225-5.185-0.423-11.587,0.601-18.919c0.938-7.32,2.632-15.632,5.903-24.362
							c3.237-8.727,7.85-17.919,14.178-26.867c6.281-8.967,14.449-17.563,24.331-24.924c19.568-15.026,46.626-24.047,75.078-23.703
							c28.374,0.348,55.467,8.432,75.586,22.777c10.034,7.253,17.494,16.603,23.165,25.938c5.638,9.399,9.437,18.971,11.896,27.942
							c2.453,8.99,3.544,17.372,4.267,24.716c0.707,7.354,1.006,13.708,1.25,18.896c0.218,5.172,0.39,9.197,0.509,11.955
							c0.053,1.348,0.096,2.383,0.127,3.106C284.563,297.947,284.555,298.306,284.555,298.306z"/>
					</g>
				</g>
			</g>
		</g>
		<g>
			<g>
				<g>
					<g>
						<path fill="#1A2E35" d="M289.039,300.146c0,0-0.026-0.298-0.05-0.887c-0.023-0.602-0.054-1.477-0.095-2.625
							c-0.072-2.33-0.176-5.762-0.318-10.23c-0.256-8.974-0.626-22.108-1.105-38.812c-0.456-16.714-1.01-36.996-1.648-60.24
							c-0.157-5.812-0.318-11.81-0.487-17.985c-0.202-3.08,0.119-6.23,0.407-9.403c0.226-1.576,0.451-3.164,0.676-4.764
							c0.326-1.58,0.651-3.17,0.979-4.773c1.493-6.367,3.666-12.748,6.585-18.96c2.934-6.205,6.408-12.334,10.845-18.014l0.03-0.039
							l0.05-0.031c22.595-14.23,47.163-29.713,73.158-46.086c6.5-4.093,13.09-8.24,19.754-12.441
							c6.548-4.438,13.611-8.228,20.91-11.671c7.316-3.435,14.912-6.447,22.708-9.071c3.889-1.362,7.873-2.482,11.853-3.665
							c4.024-1.012,8.041-2.161,12.141-2.984c15.755-3.497,31.617-5.233,47.155-5.952c15.549-0.728,30.806-0.685,45.648,0.152
							l0.428,0.023l-0.092,0.429c-7,31.324-13.604,60.862-19.663,87.936l-0.008,0.054l-0.029,0.053
							c-3.696,6.063-6.628,12.447-8.822,18.89c-2.104,6.454-3.459,13.086-2.985,19.546c0.506,6.494,0.681,12.853,0.851,19.02
							c0.122,6.17,0.236,12.162,0.352,17.973c0.336,23.234,0.429,43.5,0.488,60.203c0.025,16.688,0.031,29.813,0.048,38.781
							c-0.017,4.468-0.03,7.896-0.039,10.221c-0.015,1.149-0.023,2.026-0.023,2.625c-0.015,0.59-0.03,0.889-0.03,0.889
							s-0.015-0.299-0.023-0.889c-0.009-0.599-0.014-1.476-0.031-2.625c-0.014-2.324-0.038-5.753-0.06-10.221
							c-0.054-8.969-0.13-22.094-0.23-38.781c-0.121-16.698-0.259-36.966-0.651-60.196c-0.119-5.808-0.25-11.797-0.388-17.965
							c-0.177-6.166-0.361-12.5-0.873-18.99c-0.489-6.579,0.873-13.286,2.983-19.796c2.211-6.5,5.142-12.904,8.869-19.044
							l-0.046,0.106c6.029-27.077,12.608-56.622,19.585-87.951l0.338,0.452c-14.789-0.823-30.046-0.862-45.555-0.13
							C497.107,23,481.299,24.732,465.6,28.218c-4.093,0.818-8.096,1.962-12.104,2.973c-3.963,1.177-7.935,2.295-11.806,3.649
							c-7.782,2.617-15.348,5.616-22.632,9.032c-7.277,3.433-14.31,7.205-20.82,11.611c-6.671,4.198-13.261,8.344-19.761,12.434
							c-26.014,16.358-50.604,31.817-73.214,46.037l0.081-0.072c-4.377,5.588-7.858,11.706-10.778,17.857
							c-2.907,6.171-5.076,12.505-6.568,18.825c-3.328,12.687-1.652,25.2-1.625,36.788c0.577,23.244,1.078,43.523,1.491,60.236
							c0.398,16.7,0.708,29.833,0.922,38.807c0.092,4.473,0.165,7.906,0.215,10.239c0.02,1.148,0.03,2.02,0.042,2.625
							C289.05,299.848,289.039,300.146,289.039,300.146z"/>
					</g>
				</g>
			</g>
		</g>
		<g>
			<g>
				<g>
					<g>
						<path fill="#1A2E35" d="M557.727,24.163c0,0,0.237-0.026,0.696-0.046c0.482-0.015,1.162-0.037,2.035-0.069
							c1.821-0.042,4.461-0.107,7.856-0.191c6.873-0.134,16.797-0.329,29.138-0.574c24.774-0.419,59.259-1.009,98.26-1.675
							l0.184-0.003l0.113,0.146c4.416,5.397,9.053,11.078,13.766,16.855c13.948,17.096,27.231,33.386,39.319,48.203
							c1.506,1.852,2.999,3.679,4.468,5.485c1.453,1.841,2.686,3.837,3.673,5.899c1.944,4.147,2.931,8.584,2.945,12.877
							c0.039,4.3-0.851,8.431-2.388,12.108c-1.554,3.626-3.052,7.103-4.476,10.425c-5.73,13.252-10.367,23.981-13.589,31.429
							c-1.605,3.682-2.858,6.55-3.726,8.532c-0.42,0.948-0.75,1.684-0.987,2.207c-0.222,0.499-0.359,0.746-0.359,0.746
							s0.084-0.267,0.291-0.776c0.215-0.532,0.52-1.276,0.911-2.236c0.841-1.994,2.049-4.883,3.595-8.588
							c3.167-7.472,7.729-18.237,13.36-31.527c2.554-6.691,7.032-13.728,6.725-22.312c-0.03-4.204-1.002-8.542-2.915-12.593
							c-0.972-2.021-2.173-3.953-3.604-5.762c-1.477-1.802-2.969-3.628-4.483-5.475c-12.097-14.804-25.395-31.074-39.356-48.16
							c-4.715-5.773-9.353-11.455-13.758-16.856l0.298,0.141c-38.999,0.563-73.483,1.06-98.259,1.42
							c-12.349,0.145-22.272,0.261-29.146,0.345c-3.396,0.023-6.035,0.042-7.856,0.054c-0.873,0-1.545,0-2.035,0
							C557.964,24.181,557.727,24.163,557.727,24.163z"/>
					</g>
				</g>
			</g>
		</g>
		<g>
			<g>
				<g>
					<g>
						<path fill="#1A2E35" d="M508.133,154.815c0-0.043,0.41-0.039,1.178-0.177c0.756-0.13,1.881-0.432,3.107-1.235
							c1.208-0.797,2.517-2.157,3.165-4.122c0.337-0.981,0.453-2.065,0.406-3.257c-0.031-1.161-0.321-2.384-0.917-3.521
							c-1.179-2.261-3.764-4.155-6.817-4.151c-3.129,0.007-6.466,0.02-9.978,0.027c-7.039,0.012-14.759,0.02-22.869,0.03
							c-1.936,0-3.825,0.753-5.211,2.032c-1.392,1.271-2.28,3.03-2.471,4.843c-0.184,1.859,0.061,3.686,0.941,5.226
							c0.856,1.542,2.25,2.708,3.788,3.363c1.56,0.693,3.244,0.593,4.928,0.6c1.659,0.007,3.273,0.016,4.844,0.02
							c3.119,0.02,6.028,0.034,8.697,0.05c5.259,0.05,9.534,0.091,12.586,0.118c1.432,0.031,2.57,0.057,3.429,0.074
							C507.72,154.761,508.133,154.788,508.133,154.815s-0.413,0.05-1.194,0.077c-0.858,0.018-1.997,0.041-3.429,0.071
							c-3.052,0.032-7.327,0.07-12.586,0.124c-2.669,0.015-5.578,0.03-8.697,0.046c-1.57,0.008-3.185,0.014-4.844,0.018
							c-0.85-0.007-1.661,0.036-2.563-0.018c-0.887-0.066-1.784-0.25-2.632-0.602c-1.69-0.707-3.213-1.972-4.154-3.656
							c-0.98-1.664-1.255-3.735-1.057-5.67c0.207-1.993,1.178-3.933,2.708-5.329c1.515-1.404,3.597-2.234,5.724-2.234
							c8.11,0.011,15.83,0.018,22.869,0.03c3.512,0.015,6.854,0.027,9.985,0.042c3.305,0.026,6.066,2.105,7.291,4.538
							c0.629,1.223,0.917,2.532,0.928,3.763c0.028,1.198-0.108,2.396-0.492,3.405c-0.727,2.061-2.126,3.45-3.405,4.236
							c-1.299,0.791-2.471,1.056-3.251,1.139C508.543,154.883,508.133,154.815,508.133,154.815z"/>
					</g>
				</g>
			</g>
		</g>
		<g>
			<g>
				<g>
					<g>
						<path fill="#1A2E35" d="M727.074,154.815c0-0.043,0.413-0.039,1.179-0.177c0.757-0.13,1.89-0.432,3.114-1.235
							c1.208-0.797,2.51-2.157,3.166-4.122c0.338-0.981,0.453-2.065,0.397-3.257c-0.022-1.161-0.32-2.384-0.916-3.521
							c-1.18-2.261-3.767-4.155-6.81-4.151c-3.13,0.007-6.473,0.02-9.979,0.027c-7.039,0.012-14.766,0.02-22.87,0.03
							c-1.941,0-3.831,0.753-5.208,2.032c-1.401,1.271-2.281,3.03-2.479,4.843c-0.185,1.859,0.062,3.686,0.946,5.226
							c0.851,1.542,2.243,2.708,3.789,3.363c1.554,0.693,3.237,0.593,4.92,0.6c1.668,0.007,3.281,0.016,4.842,0.02
							c3.122,0.02,6.038,0.034,8.7,0.05c5.257,0.05,9.542,0.091,12.594,0.118c1.432,0.031,2.573,0.057,3.421,0.074
							C726.668,154.761,727.074,154.788,727.074,154.815s-0.405,0.05-1.193,0.077c-0.848,0.018-1.989,0.041-3.421,0.071
							c-3.052,0.032-7.337,0.07-12.594,0.124c-2.662,0.015-5.578,0.03-8.7,0.046c-1.561,0.008-3.174,0.014-4.842,0.018
							c-0.842-0.007-1.653,0.036-2.555-0.018c-0.889-0.066-1.792-0.25-2.639-0.602c-1.684-0.707-3.216-1.972-4.157-3.656
							c-0.979-1.664-1.253-3.735-1.056-5.67c0.207-1.993,1.179-3.933,2.709-5.329c1.516-1.404,3.597-2.234,5.729-2.234
							c8.104,0.011,15.831,0.018,22.87,0.03c3.512,0.015,6.849,0.027,9.985,0.042c3.297,0.026,6.059,2.105,7.284,4.538
							c0.627,1.223,0.917,2.532,0.927,3.763c0.029,1.198-0.107,2.396-0.481,3.405c-0.736,2.061-2.136,3.45-3.414,4.236
							c-1.294,0.791-2.472,1.056-3.252,1.139C727.487,154.883,727.074,154.815,727.074,154.815z"/>
					</g>
				</g>
			</g>
		</g>
		<g>
			<g>
				<g>
					<path fill="#FAFAFA" d="M919.074,119.087H875.27c-6.006,0-11.515,3.325-14.315,8.639l0,0
						c-2.287,4.361-2.472,9.533-0.481,14.041l17.176,39.024l43.865-0.433C921.514,180.358,930.847,130.894,919.074,119.087z"/>
				</g>
			</g>
		</g>
		<g>
			<g>
				<g>
					<path fill="#1A2E35" d="M310.638,113.567l226.047-4.166l147.12-2.697l48.519-28.012c3.922-2.269,4.972-7.467,2.225-11.079
						l-30.199-39.68c-3.144-4.139-8.033-6.584-13.236-6.63L526.574,19.97c0,0-61.968-3.6-110.783,23.734
						C364.411,72.473,310.638,113.567,310.638,113.567z"/>
				</g>
			</g>
		</g>
		<g>
			<g>
				<g>
					<path fill="#375A64" d="M414.237,24.067c0,0,11.332,5.168,3.955,9.958c-7.375,4.785-121.896,76.986-121.896,76.986
						L269.968,99.1C316.603,73.115,363.707,47.881,414.237,24.067z"/>
				</g>
			</g>
		</g>
		<g>
			<g>
				<g>
					<g>
						<path fill="#1A2E35" d="M299.995,112.817c0,0-0.237,0.073-0.708,0.18c-0.5,0.111-1.193,0.26-2.084,0.456
							c-1.872,0.386-4.572,0.944-8.03,1.66c-6.989,1.388-17.111,3.344-29.668,5.497c-25.103,4.323-59.97,9.357-98.708,12.708
							c-9.686,0.843-19.154,1.533-28.297,2.135c-9.147,0.596-17.965,1.155-26.347,1.925c-16.757,1.457-31.772,3.897-43.968,7.529
							c-12.23,3.511-21.572,8.01-27.72,11.564c-3.148,1.661-5.394,3.285-6.989,4.27c-0.77,0.485-1.366,0.869-1.798,1.141
							c-0.41,0.254-0.632,0.371-0.632,0.371s0.192-0.157,0.585-0.434c0.421-0.289,1.006-0.69,1.76-1.208
							c1.568-1.024,3.787-2.692,6.924-4.399c6.114-3.641,15.459-8.238,27.717-11.829c12.218-3.707,27.276-6.214,44.056-7.713
							c8.393-0.787,17.219-1.361,26.362-1.968c9.14-0.613,18.6-1.309,28.283-2.151c38.712-3.347,73.567-8.293,98.681-12.475
							c12.564-2.089,22.698-3.956,29.703-5.256c3.469-0.654,6.181-1.168,8.056-1.519c0.9-0.165,1.597-0.287,2.101-0.378
							C299.747,112.84,299.995,112.817,299.995,112.817z"/>
					</g>
				</g>
			</g>
		</g>
		<g>
			<g>
				<g>
					<g>
						<ellipse fill="#1A2E35" cx="902.928" cy="214.042" rx="33.649" ry="0.387"/>
					</g>
				</g>
			</g>
		</g>
		<g>
			<g>
				<g>
					<g>
						<path fill="#1A2E35" d="M660.958,252.49c0,0.215-85.05,0.389-189.941,0.389c-104.923,0-189.95-0.174-189.95-0.389
							c0-0.211,85.027-0.382,189.95-0.382C575.908,252.108,660.958,252.279,660.958,252.49z"/>
					</g>
				</g>
			</g>
		</g>
		<g>
			<g>
				<g>
					<g>
						<path fill="#1A2E35" d="M65.471,215.317c0,0.211-12.024,0.383-26.856,0.383c-14.836,0-26.86-0.172-26.86-0.383
							c0-0.215,12.024-0.386,26.86-0.386C53.447,214.931,65.471,215.102,65.471,215.317z"/>
					</g>
				</g>
			</g>
		</g>
		<g>
			<g>
				<g>
					<path fill="#375A64" d="M847.413,50.162c0,0-10.092,11.3-6.129,19.595c3.972,8.29,44.974,37.318,44.974,37.318l29.765,5.582
						L847.413,50.162z"/>
				</g>
			</g>
		</g>
		<g>
			<g>
				<g>
					<polygon fill="#375A64" points="564.43,29.938 557.727,102.213 677.494,98.801 725.766,70.743 694.517,29.938 					"/>
				</g>
			</g>
		</g>
		<g>
			<g>
				<g>
					<path fill="#375A64" d="M339,105.912c0,0,72.245-52.176,100.761-62.551c27.506-10.008,41.853-12.518,67.698-13.252
						c24.698-0.704,39.747-0.024,39.747-0.024l-19.09,73.482L339,105.912z"/>
				</g>
			</g>
		</g>
		<g>
			<g>
				<g>
					<g>
						<path fill="#FF735D" d="M328.427,106.153L328.427,106.153c0-4.575,2.467-8.794,6.458-11.037l16.598-9.323
							c4.733-2.659,10.069-4.055,15.498-4.055l0,0c3.374,0,6.698,0.539,9.854,1.571c7.094,2.327,11.815,9.063,12.1,16.523l0,0
							c0.398,10.363-7.901,18.983-18.278,18.983h-29.572C334.096,118.816,328.427,113.146,328.427,106.153z"/>
					</g>
				</g>
			</g>
			<g>
				<g>
					<g>
						<g>
							<path fill="#1A2E35" d="M328.427,106.153c0.042,0,0.046,0.563,0.192,1.603c0.138,1.044,0.513,2.579,1.457,4.338
								c0.971,1.726,2.601,3.657,5.087,5.007c1.243,0.654,2.689,1.149,4.269,1.348c1.569,0.183,3.306,0.08,5.104,0.095
								c7.227-0.023,15.8-0.053,25.317-0.084c2.366,0.015,4.752-0.279,7.046-1.156c2.289-0.849,4.445-2.203,6.263-3.979
								c1.81-1.774,3.303-3.959,4.224-6.416c0.936-2.452,1.304-5.142,1.104-7.827c-0.406-5.383-3.292-10.367-7.47-13.251
								c-2.069-1.487-4.456-2.322-6.859-2.889c-2.398-0.57-4.814-0.845-7.17-0.849c-4.717-0.008-9.173,1.048-12.986,2.781
								c-1.914,0.854-3.658,1.933-5.392,2.87c-1.718,0.956-3.367,1.87-4.941,2.75c-3.146,1.74-5.995,3.32-8.509,4.713
								c-2.498,1.343-4.127,3.279-5.084,5.011c-0.964,1.752-1.312,3.294-1.469,4.331
								C328.458,105.595,328.469,106.157,328.427,106.153c0,0-0.075-0.558,0.026-1.623c0.113-1.055,0.418-2.639,1.363-4.452
								c0.934-1.794,2.586-3.826,5.138-5.245c2.493-1.423,5.325-3.038,8.451-4.817c1.568-0.888,3.21-1.821,4.918-2.792
								c1.723-0.945,3.455-2.039,5.415-2.931c3.881-1.793,8.43-2.9,13.254-2.912c2.41-0.003,4.883,0.268,7.337,0.842
								c2.442,0.567,4.959,1.438,7.123,2.987c4.374,3.011,7.382,8.203,7.811,13.811c0.2,2.797-0.184,5.604-1.163,8.165
								c-0.962,2.56-2.519,4.836-4.409,6.679c-1.898,1.848-4.148,3.248-6.534,4.132c-2.376,0.902-4.912,1.197-7.304,1.175
								c-9.518-0.031-18.09-0.062-25.317-0.085c-1.801-0.034-3.512,0.058-5.168-0.152c-1.64-0.226-3.133-0.758-4.411-1.455
								c-2.551-1.434-4.192-3.454-5.146-5.244c-0.925-1.821-1.259-3.397-1.349-4.457
								C328.37,106.716,328.427,106.153,328.427,106.153z"/>
						</g>
					</g>
				</g>
			</g>
		</g>
		<g>
			<g>
				<g>
					<g>
						<path fill="#1A2E35" d="M885.093,298.978c0,0,0.009-0.349,0.046-1.028c0.046-0.7,0.116-1.7,0.2-3.002
							c0.084-1.321,0.243-2.955,0.328-4.888c0.07-1.935,0.146-4.165,0.23-6.675c0.023-2.514-0.016-5.306-0.046-8.362
							c-0.191-3.05-0.208-6.377-0.626-9.921c-0.637-7.1-1.822-15.175-4.278-23.81c-1.286-4.295-2.718-8.78-4.714-13.253
							c-1.898-4.51-4.308-9.017-7.146-13.446c-5.641-8.914-13.62-17.115-23.139-24.151c-9.549-7.019-20.841-12.646-33.189-16.362
							c-12.351-3.783-25.778-5.159-39.457-5.256c-13.682-0.034-27.07,1.826-39.374,5.727c-6.151,1.943-12.02,4.389-17.53,7.235
							c-5.492,2.866-10.526,6.308-15.21,9.941c-9.311,7.338-17.169,15.567-23.435,24.039c-3.092,4.268-5.601,8.71-7.796,13.088
							c-2.066,4.433-3.941,8.747-5.388,13.002c-5.993,16.955-7.874,31.539-8.54,41.527c-0.237,5.02-0.215,8.921-0.086,11.565
							c0.07,1.302,0.133,2.302,0.17,3.002c0.037,0.68,0.037,1.028,0.037,1.028s-0.054-0.346-0.114-1.021
							c-0.061-0.699-0.137-1.696-0.253-3.002c-0.176-2.644-0.243-6.553-0.052-11.589c0.572-10.019,2.38-24.65,8.325-41.695
							c1.431-4.272,3.305-8.615,5.37-13.078c2.19-4.408,4.699-8.888,7.807-13.203c6.288-8.538,14.162-16.826,23.519-24.22
							c4.697-3.664,9.765-7.134,15.311-10.034c5.547-2.878,11.445-5.345,17.636-7.303c12.381-3.937,25.854-5.811,39.604-5.777
							c13.732,0.093,27.236,1.482,39.671,5.303c12.426,3.745,23.796,9.425,33.389,16.512c4.813,3.535,9.181,7.399,13.093,11.479
							c3.917,4.08,7.353,8.397,10.167,12.897c2.854,4.472,5.266,9.014,7.154,13.561c1.998,4.504,3.428,9.018,4.689,13.342
							c2.441,8.684,3.589,16.794,4.188,23.917c0.396,3.558,0.388,6.89,0.565,9.95c0.007,3.062,0.023,5.859-0.022,8.378
							c-0.114,2.51-0.215,4.74-0.299,6.684c-0.115,1.933-0.298,3.563-0.397,4.882c-0.124,1.302-0.214,2.299-0.284,2.998
							C885.155,298.632,885.093,298.978,885.093,298.978z"/>
					</g>
				</g>
			</g>
		</g>
		<g>
			<g>
				<g>
					<g>
						<path fill="none" stroke="#44555B" stroke-width="0.05" stroke-miterlimit="10" d="M205.219,167.737"/>
					</g>
				</g>
			</g>
		</g>
		<g>
			<g>
				<g>
					<g>
						<path fill="#FFFFFF" d="M524.957,113.567c0,0.012-0.12,0.027-0.345,0.038c-0.274,0.012-0.603,0.028-1.001,0.042
							c-0.948,0.023-2.242,0.05-3.863,0.084c-3.42,0.061-8.257,0.15-14.192,0.257c-11.99,0.225-28.547,0.665-46.833,1.163
							c-18.294,0.498-34.859,0.853-46.85,0.937c-5.998,0.046-10.849,0.05-14.2,0.011c-1.62-0.027-2.915-0.045-3.863-0.06
							c-0.398-0.012-0.726-0.023-1.003-0.036c-0.222-0.011-0.343-0.022-0.343-0.038c0-0.012,0.121-0.026,0.343-0.042
							c0.277-0.012,0.605-0.023,1.003-0.038c0.948-0.022,2.243-0.049,3.863-0.087c3.421-0.062,8.256-0.146,14.193-0.253
							c11.991-0.226,28.547-0.666,46.84-1.163c18.287-0.498,34.844-0.853,46.839-0.941c5.992-0.046,10.852-0.05,14.203-0.008
							c1.621,0.024,2.915,0.047,3.863,0.062c0.398,0.012,0.727,0.023,1.001,0.035C524.836,113.541,524.957,113.552,524.957,113.567z
							"/>
					</g>
				</g>
			</g>
		</g>
		<g>
			<g>
				<g>
					<g>
						<path fill="#FFFFFF" d="M505.332,135.821c0,0.214-5.806,0.386-12.969,0.386c-7.16,0-12.968-0.171-12.968-0.386
							c0-0.21,5.808-0.384,12.968-0.384C499.526,135.438,505.332,135.611,505.332,135.821z"/>
					</g>
				</g>
			</g>
		</g>
		<g>
			<g>
				<g>
					<g>
						<path fill="#FFFFFF" d="M510.091,56.619c0.076,0.196-16.021,6.898-35.952,14.966c-19.94,8.072-36.161,14.45-36.245,14.253
							c-0.077-0.199,16.013-6.896,35.953-14.969C493.779,62.802,510.007,56.42,510.091,56.619z"/>
					</g>
				</g>
			</g>
		</g>
		<g>
			<g>
				<g>
					<g>
						<path fill="#FFFFFF" d="M477.474,61.672c0.084,0.196-15.241,6.948-34.231,15.077c-18.99,8.137-34.454,14.568-34.538,14.374
							c-0.083-0.195,15.241-6.947,34.231-15.08C461.928,67.913,477.391,61.479,477.474,61.672z"/>
					</g>
				</g>
			</g>
		</g>
		<g>
			<g>
				<g>
					<g>
						<path fill="#FFFFFF" d="M684.328,53.819c0.074,0.199-16.023,6.901-35.956,14.966c-19.94,8.071-36.16,14.452-36.235,14.253
							c-0.085-0.195,16.014-6.897,35.951-14.966C668.023,60.005,684.242,53.624,684.328,53.819z"/>
					</g>
				</g>
			</g>
		</g>
		<g>
			<g>
				<g>
					<g>
						<path fill="#FFFFFF" d="M651.707,58.873c0.086,0.199-15.24,6.947-34.23,15.081c-18.991,8.133-34.452,14.563-34.539,14.369
							c-0.074-0.196,15.243-6.943,34.241-15.081C636.16,65.112,651.624,58.678,651.707,58.873z"/>
					</g>
				</g>
			</g>
		</g>
		<g>
			<g>
				<g>
					<g>
						<path fill="#FFFFFF" d="M687.471,113.555c0,0.211-32.016,0.574-71.495,0.812c-39.495,0.234-71.509,0.253-71.509,0.038
							c0-0.21,32.007-0.573,71.502-0.811C655.448,113.361,687.471,113.341,687.471,113.555z"/>
					</g>
				</g>
			</g>
		</g>
		<g>
			<g>
				<g>
					<g>
						<path fill="#FFFFFF" d="M722.918,134.581c0.009,0.214-8.974,0.471-20.045,0.575c-11.08,0.104-20.062,0.014-20.062-0.201
							c0-0.21,8.975-0.465,20.054-0.569C713.935,134.283,722.918,134.37,722.918,134.581z"/>
					</g>
				</g>
			</g>
		</g>
		<g>
			<g>
				<g>
					<g>
						<path fill="#FFFFFF" d="M109.963,123.639c0.003,0.027-0.296,0.085-0.869,0.168c-0.659,0.089-1.489,0.196-2.51,0.33
							c-1.09,0.126-2.425,0.29-3.963,0.542c-1.538,0.245-3.301,0.467-5.225,0.857c-3.865,0.669-8.429,1.684-13.437,3.019
							c-4.996,1.388-10.427,3.122-16.006,5.291c-5.563,2.203-10.73,4.62-15.336,7c-4.579,2.429-8.616,4.786-11.906,6.925
							c-1.675,1.021-3.117,2.054-4.414,2.922c-1.3,0.861-2.391,1.645-3.275,2.296c-0.842,0.596-1.526,1.079-2.066,1.464
							c-0.475,0.327-0.734,0.491-0.75,0.467c-0.02-0.02,0.21-0.221,0.658-0.593c0.516-0.414,1.17-0.937,1.979-1.58
							c0.856-0.689,1.923-1.512,3.205-2.406c1.278-0.904,2.701-1.975,4.365-3.03c3.263-2.205,7.287-4.619,11.875-7.093
							c4.606-2.426,9.793-4.878,15.386-7.093c5.605-2.176,11.072-3.902,16.103-5.257c5.042-1.304,9.636-2.269,13.527-2.869
							c1.936-0.36,3.711-0.543,5.26-0.746c1.55-0.219,2.889-0.338,3.99-0.418c1.03-0.076,1.864-0.137,2.524-0.183
							C109.656,123.621,109.963,123.617,109.963,123.639z"/>
					</g>
				</g>
			</g>
		</g>
		<g>
			<g>
				<g>
					<g>
						<path fill="#FFFFFF" d="M374.258,88.724c-0.057,0.042-0.437-0.582-1.429-1.377c-0.975-0.792-2.642-1.691-4.888-1.979
							c-2.246-0.298-4.961,0.089-7.888,0.858c-2.941,0.73-6.114,1.779-9.32,3.167c-6.434,2.77-11.676,6.454-15.161,9.426
							c-3.515,2.958-5.379,5.134-5.486,5.034c-0.041-0.038,0.407-0.597,1.249-1.576c0.864-0.964,2.152-2.326,3.882-3.872
							c3.425-3.103,8.688-6.912,15.21-9.717c3.248-1.41,6.474-2.448,9.457-3.156c2.966-0.738,5.792-1.086,8.134-0.704
							c2.344,0.371,4.055,1.396,5.011,2.288c0.482,0.448,0.796,0.853,0.988,1.137C374.201,88.548,374.275,88.708,374.258,88.724z"/>
					</g>
				</g>
			</g>
		</g>
	</g>
	<g>
		<g>
			<g>
				<g>
					<path fill="#1A2E35" d="M850.764,49.638c0,0-2.197,0.658-6.297,0.643c-2.052-0.05-4.554-0.292-7.393-0.915
						c-2.846-0.616-6.006-1.607-9.418-2.908c-3.42-1.289-7.069-2.922-11.002-4.605c-1.982-0.8-4.033-1.625-6.144-2.479
						c-2.112-0.841-4.347-1.568-6.604-2.391c-9.089-3.125-19.305-5.925-30.16-8.222c-21.746-4.567-41.839-6.454-56.374-7.019
						c-3.636-0.196-6.933-0.2-9.817-0.28c-2.876,0-5.364,0-7.422,0c-1.989,0.046-3.559,0.08-4.689,0.104
						c-0.5,0.003-0.897,0.007-1.218,0.007c-0.275,0-0.419-0.007-0.419-0.021c0-0.012,0.144-0.032,0.411-0.054
						c0.322-0.023,0.72-0.05,1.226-0.084c1.124-0.062,2.691-0.145,4.682-0.249c2.058-0.038,4.544-0.08,7.43-0.134
						c2.892,0.042,6.188,0.003,9.832,0.168c14.566,0.425,34.713,2.23,56.511,6.81c10.889,2.299,21.133,5.129,30.246,8.301
						c2.257,0.838,4.491,1.577,6.61,2.434c2.119,0.868,4.168,1.71,6.15,2.524c3.935,1.709,7.56,3.366,10.948,4.682
						c3.375,1.328,6.505,2.345,9.313,2.996c2.808,0.658,5.279,0.941,7.306,1.036c2.028,0.054,3.604-0.049,4.66-0.176
						c0.496-0.06,0.894-0.107,1.209-0.146C850.618,49.633,850.764,49.622,850.764,49.638z"/>
				</g>
			</g>
		</g>
	</g>
</g>
</svg>
