<?xml version="1.0" encoding="utf-8"?>
<!-- Generator: Adobe Illustrator 16.0.0, SVG Export Plug-In . SVG Version: 6.00 Build 0)  -->
<!DOCTYPE svg PUBLIC "-//W3C//DTD SVG 1.1//EN" "http://www.w3.org/Graphics/SVG/1.1/DTD/svg11.dtd">
<svg version="1.1" id="Layer_1" xmlns="http://www.w3.org/2000/svg" xmlns:xlink="http://www.w3.org/1999/xlink" x="0px" y="0px"
	 width="502.299px" height="750.575px" viewBox="0 0 502.299 750.575" enable-background="new 0 0 502.299 750.575"
	 xml:space="preserve">
<g>
	<g>
		<g>
			<rect x="333.492" y="422.34" fill="#1A2E35" width="15.353" height="22.007"/>
		</g>
		<g>
			<rect x="259.053" y="483.972" fill="#F5F5F5" width="101.805" height="79.088"/>
		</g>
		<g>
			<rect x="122.358" y="75.445" fill="#32CCC9" width="259.02" height="237.05"/>
		</g>
		<g>
			<path fill="#E1E1E1" d="M241.761,409.33v328.378h134.944V409.33H241.761z M358.038,561.039h-97.476l-0.134-138.698h97.476
				L358.038,561.039z"/>
		</g>
		<g>
			<rect x="259.974" y="560.472" fill="#375A64" width="33.041" height="66.281"/>
		</g>
		<g>
			<g>
				<polygon fill="#E1E1E1" points="132.685,737.708 78.016,737.409 78.016,61.067 132.685,61.067 				"/>
			</g>
			<g>
				<g>
					<path fill="#1A2E35" d="M132.685,737.708c0,0-0.035-1.195-0.052-3.491c-0.012-2.313-0.029-5.704-0.053-10.148
						c-0.026-8.932-0.061-22.065-0.11-39.002c-0.053-33.893-0.131-82.976-0.23-143.9c-0.082-121.761-0.198-290.803-0.329-480.098
						l0.774,0.775c-17.319,0-35.82,0-54.483,0.002h-0.183l0.774-0.777c-0.218,306.083-0.404,568.117-0.483,676.341l-0.292-0.289
						c17.707,0.168,31.335,0.296,40.572,0.391c4.606,0.051,8.11,0.091,10.496,0.121
						C131.453,737.666,132.685,737.708,132.685,737.708s-1.159,0.035-3.493,0.04c-2.372,0-5.856,0.006-10.433,0.012
						c-9.275-0.012-22.962-0.035-40.744-0.059h-0.291v-0.292c-0.079-108.225-0.266-370.258-0.484-676.341v-0.776h0.778h0.183
						c18.663,0,37.164,0,54.483,0.002h0.775v0.774c-0.128,189.516-0.244,358.762-0.326,480.667
						c-0.099,60.846-0.177,109.869-0.233,143.714c-0.046,16.862-0.081,29.938-0.107,38.828c-0.024,4.399-0.041,7.755-0.052,10.052
						C132.723,736.583,132.685,737.708,132.685,737.708z"/>
				</g>
			</g>
		</g>
		<g>
			<g>
				<rect x="376.635" y="49.855" fill="#E1E1E1" width="54.507" height="687.853"/>
			</g>
			<g>
				<g>
					<path fill="#1A2E35" d="M431.142,737.708c0,0-0.034-1.219-0.052-3.549c-0.019-2.35-0.037-5.797-0.059-10.319
						c-0.023-9.083-0.059-22.432-0.106-39.654c-0.058-34.457-0.134-84.36-0.232-146.301c-0.081-123.788-0.198-295.632-0.326-488.029
						l0.775,0.774c-17.315,0-35.81,0.001-54.465,0.001h-0.042l0.781-0.775c-0.221,312.023-0.413,578.985-0.489,687.853l-0.292-0.286
						c17.713,0.07,31.301,0.129,40.494,0.164c4.585,0.028,8.07,0.052,10.44,0.068C429.919,737.671,431.142,737.708,431.142,737.708
						s-1.147,0.04-3.466,0.058c-2.361,0.018-5.822,0.041-10.379,0.071c-9.233,0.033-22.879,0.091-40.662,0.161h-0.285v-0.29
						c-0.082-108.867-0.268-375.829-0.489-687.853v-0.777h0.774h0.042c18.655,0,37.149,0.001,54.465,0.001h0.774v0.775
						c-0.128,192.618-0.244,364.666-0.326,488.602c-0.099,61.858-0.181,111.702-0.232,146.113
						c-0.048,17.148-0.088,30.438-0.112,39.479c-0.021,4.476-0.04,7.889-0.051,10.221
						C431.176,736.564,431.142,737.708,431.142,737.708z"/>
				</g>
			</g>
		</g>
		<g>
			<rect x="272.133" y="422.34" fill="#1A2E35" width="15.353" height="22.007"/>
		</g>
		<g>
			<rect x="302.279" y="422.34" fill="#1A2E35" width="15.353" height="22.007"/>
		</g>
		<g>
			<rect x="132.685" y="618.841" fill="#32CCC9" width="109.009" height="118.866"/>
		</g>
		<g>
			<rect x="160.576" y="409.33" fill="#E1E1E1" width="81.118" height="209.512"/>
		</g>
		<g>
			<rect x="268.364" y="571.17" fill="#1A2E35" width="16.114" height="55.583"/>
		</g>
		<g>
			<path fill="#E1E1E1" d="M278.938,595.92h-4.882v-17.316c0-1.351,1.089-2.44,2.44-2.44l0,0c1.347,0,2.441,1.09,2.441,2.44V595.92z
				"/>
		</g>
		<g>
			<polyline fill="none" points="255.422,737.708 255.422,650.416 357.677,650.416 357.677,735.832 			"/>
		</g>
		<g>
			<path fill="#1A2E35" d="M261.949,724.93c-8.007,0-14.436-5.553-14.635-12.645c-0.291-10.512-0.219-27.331-0.157-42.177
				c0.029-6.806,0.055-13.256,0.046-18.599c-0.029-16.82,10.72-71.479,18.562-111.383c2.815-14.304,5.244-26.655,6.706-34.854
				c1.393-7.824,3.52-25.393,5.728-64.656c0.151-2.751,0.191-3.489,1.607-3.489v1.491l1.486,0.15
				c-0.013,0.146-0.053,0.851-0.117,2.011c-2.214,39.416-4.357,57.11-5.768,65.018c-1.469,8.227-3.898,20.59-6.712,34.906
				c-7.825,39.782-18.536,94.276-18.509,110.801c0.009,5.348-0.017,11.805-0.046,18.616c-0.061,14.821-0.134,31.618,0.157,42.084
				c0.152,5.372,5.378,9.742,11.652,9.742c3.432,0,6.677-1.295,8.902-3.55c1.807-1.828,2.786-4.154,2.757-6.549l0.232-88.707
				l2.982,0.007l-0.232,88.682c0.04,3.178-1.247,6.266-3.618,8.665C270.193,723.316,266.173,724.93,261.949,724.93z"/>
		</g>
		<g>
			<rect x="171.227" y="438.62" fill="#375A64" width="59.816" height="44.602"/>
		</g>
		<g>
			<rect x="177.44" y="443.665" fill="#1A2E35" width="47.39" height="34.505"/>
		</g>
		<g>
			<g>
				<path fill="#1A2E35" d="M201.189,506.509c-0.102-0.134-0.323-3.135-0.48-7.849l0.48,0.484
					c-6.446,0.18-16.602,0.297-27.996,0.297c0.345-0.351-0.777,0.774,0.775-0.781v0.006l0,0v0.013v0.011v0.035v0.063v0.123v0.255
					v0.502l-0.003,1.009c0,0.664,0,1.328-0.002,1.98c-0.007,1.311-0.009,2.592-0.015,3.852l-0.758-0.757
					c7.86,0.034,14.735,0.198,19.749,0.342C197.947,506.252,201.058,506.38,201.189,506.509c0.131,0.128-2.741,0.256-7.723,0.414
					c-4.976,0.15-12.099,0.309-20.276,0.343l-0.755,0.006l-0.002-0.763c-0.006-1.26-0.009-2.541-0.015-3.852
					c0-0.652-0.003-1.316-0.003-1.98v-1.009l-0.003-0.502v-0.255v-0.123v-0.063v-0.035v-0.011v-0.013l0,0v-0.006
					c1.553-1.55,0.435-0.431,0.781-0.774c11.394,0,21.55,0.116,27.996,0.296l0.496,0.013l-0.015,0.466
					C201.51,503.871,201.292,506.643,201.189,506.509z"/>
			</g>
		</g>
		<g>
			<rect x="271.947" y="595.92" fill="#32CCC9" width="9.1" height="36.241"/>
		</g>
		<g>
			<rect x="291.082" y="560.472" fill="#375A64" width="33.041" height="66.281"/>
		</g>
		<g>
			<rect x="299.471" y="571.17" fill="#1A2E35" width="16.116" height="55.583"/>
		</g>
		<g>
			<path fill="#E1E1E1" d="M310.046,595.92h-4.883v-17.316c0-1.351,1.089-2.44,2.441-2.44l0,0c1.346,0,2.441,1.09,2.441,2.44V595.92
				z"/>
		</g>
		<g>
			<path fill="#1A2E35" d="M293.056,724.93c-7.638,0-10.389-1.301-10.587-8.601c-0.291-10.528-0.222-27.367-0.163-42.229
				c0.029-6.788,0.059-13.221,0.048-18.545c-0.031-16.81,10.708-71.433,18.551-111.315c2.818-14.332,5.249-26.708,6.717-34.922
				c2.732-15.354,2.324-49.997,1.835-69.283c-0.052-1.963-0.052-2.004,0.391-2.458l1.066,1.043v1.492v-1.492l1.492,0.022
				c0,0.111,0.011,0.566,0.028,1.317c0.496,19.396,0.904,54.272-1.876,69.881c-1.469,8.239-3.904,20.634-6.729,34.977
				c-7.813,39.759-18.518,94.22-18.493,110.731c0.012,5.331-0.019,11.771-0.046,18.563c-0.06,14.841-0.129,31.655,0.161,42.137
				c0.141,5.111,0.922,5.7,7.604,5.7c3.431,0,6.677-1.295,8.902-3.55c1.807-1.828,2.786-4.154,2.756-6.549l0.233-88.707l2.983,0.007
				l-0.234,88.682c0.042,3.178-1.246,6.266-3.618,8.665C301.3,723.316,297.281,724.93,293.056,724.93z"/>
		</g>
		<g>
			<rect x="303.054" y="595.92" fill="#375A64" width="9.101" height="36.241"/>
		</g>
		<g>
			<rect x="322.188" y="560.472" fill="#375A64" width="33.047" height="66.281"/>
		</g>
		<g>
			<rect x="330.579" y="571.17" fill="#1A2E35" width="16.115" height="55.583"/>
		</g>
		<g>
			<path fill="#E1E1E1" d="M341.152,595.92h-4.881v-17.316c0-1.351,1.089-2.44,2.441-2.44l0,0c1.345,0,2.439,1.09,2.439,2.44V595.92
				z"/>
		</g>
		<g>
			<rect x="325.556" y="494.989" fill="#375A64" width="25.188" height="25.189"/>
		</g>
		<g>
			<g>
				<g>
					<path fill="#1A2E35" d="M314.026,501.993c0,0.426-9.918,0.776-22.152,0.776c-12.235,0-22.158-0.351-22.158-0.776
						c0-0.431,9.923-0.78,22.158-0.78C304.108,501.212,314.026,501.562,314.026,501.993z"/>
				</g>
			</g>
			<g>
				<g>
					<path fill="#1A2E35" d="M314.026,507.756c0,0.43-9.918,0.78-22.152,0.78c-12.235,0-22.158-0.351-22.158-0.78
						c0-0.427,9.923-0.775,22.158-0.775C304.108,506.981,314.026,507.33,314.026,507.756z"/>
				</g>
			</g>
			<g>
				<g>
					<path fill="#1A2E35" d="M314.026,513.524c0,0.431-9.918,0.775-22.152,0.775c-12.235,0-22.158-0.345-22.158-0.775
						c0-0.432,9.923-0.774,22.158-0.774C304.108,512.75,314.026,513.092,314.026,513.524z"/>
				</g>
			</g>
		</g>
		<g>
			<path fill="#1A2E35" d="M327.099,724.93h-2.937v-0.258c-6.589-1.163-11.524-6.187-11.698-12.387
				c-0.292-10.512-0.217-27.331-0.158-42.177c0.03-6.806,0.06-13.256,0.047-18.599c-0.029-16.82,10.714-71.473,18.563-111.383
				c2.815-14.304,5.243-26.655,6.707-34.854c2.016-11.326,3.053-34.498,2.913-65.25c-0.013-2.017-0.013-2.017,0.431-2.458
				l1.055,1.054v1.492v-1.492l1.491,0.06c-0.005,0.109,0,0.569,0.006,1.326c0.14,30.928-0.908,54.291-2.96,65.793
				c-1.468,8.227-3.896,20.59-6.712,34.906c-7.824,39.787-18.539,94.276-18.51,110.801c0.011,5.348-0.019,11.805-0.048,18.616
				c-0.057,14.821-0.134,31.618,0.157,42.084c0.142,4.944,4.586,9.041,10.191,9.659c2.877-0.313,5.523-1.537,7.429-3.467
				c1.807-1.828,2.785-4.154,2.757-6.549l0.232-88.707l2.983,0.007l-0.233,88.682c0.041,3.178-1.247,6.266-3.619,8.665
				c-2.126,2.156-4.975,3.606-8.087,4.172V724.93z"/>
		</g>
		<g>
			<g>
				<path fill="#1A2E35" d="M241.758,408.089c0.432,0,0.778,73.046,0.778,163.133c0,90.118-0.347,163.146-0.778,163.146
					c-0.428,0-0.774-73.028-0.774-163.146C240.984,481.135,241.33,408.089,241.758,408.089z"/>
			</g>
		</g>
		<g>
			<g>
				<path fill="#1A2E35" d="M177.86,443.98c-0.271,0.331-1.975-0.601-3.805-2.081c-1.832-1.479-3.099-2.947-2.828-3.279
					c0.268-0.337,1.972,0.595,3.804,2.074C176.864,442.174,178.128,443.642,177.86,443.98z"/>
			</g>
		</g>
		<g>
			<g>
				
					<ellipse transform="matrix(0.7588 -0.6513 0.6513 0.7588 -232.8834 254.8123)" fill="#1A2E35" cx="227.602" cy="441.842" rx="4.947" ry="0.775"/>
			</g>
		</g>
		<g>
			<g>
				<path fill="#1A2E35" d="M224.62,477.859c0.271-0.33,1.975,0.596,3.805,2.076c1.832,1.48,3.1,2.954,2.828,3.286
					c-0.268,0.332-1.972-0.595-3.804-2.081C225.617,479.662,224.353,478.194,224.62,477.859z"/>
			</g>
		</g>
		<g>
			<g>
				<path fill="#1A2E35" d="M171.125,483.221c-0.28-0.327,1.174-2.035,3.249-3.811c2.074-1.784,3.982-2.961,4.258-2.635
					c0.281,0.326-1.173,2.035-3.248,3.811C173.311,482.365,171.405,483.542,171.125,483.221z"/>
			</g>
		</g>
		<g>
			<g>
				<path fill="#FFFFFF" d="M239.994,116.117c10.982,0,21.967,0,32.95,0c0.093,0.037,0.192,0.091,0.291,0.11
					c1.41,0.261,2.57,0.933,3.496,2.026c1.066,1.252,1.398,2.727,1.398,4.325c-0.006,11.945,0,23.891,0,35.836
					c0,0.293,0,0.586,0,0.874c0.933,0,1.754,0,2.622,0c0-0.331,0-0.613,0-0.896c0-6.891-0.011-13.782,0.017-20.674
					c0.007-0.622,0.136-1.361,0.491-1.842c1.7-2.328,3.489-4.596,5.278-6.865c0.728-0.931,1.923-1.053,2.797-0.354
					c0.826,0.666,0.96,1.831,0.29,2.762c-0.407,0.567-0.833,1.126-1.281,1.661c-0.314,0.371-0.442,0.754-0.437,1.248
					c0.022,2.382,0.017,4.769,0.005,7.153c-0.005,1.313-0.74,2.073-2.051,2.137c-0.366,0.017-0.729,0.002-1.171,0.002
					c0,1.136,0,2.181,0,3.225c0,4.704,0.006,9.406,0,14.11c-0.006,1.601-0.734,2.313-2.335,2.319
					c-1.202,0.003-2.407,0.024-3.608-0.01c-0.501-0.015-0.635,0.148-0.628,0.632c0.022,2.363,0.005,4.726,0.011,7.088
					c0,0.165,0.029,0.331,0.052,0.54c0.525,0,1.003,0,1.48,0c1.672,0.003,2.395,0.716,2.4,2.392c0.005,2.297,0.005,4.594,0,6.892
					c0,1.858-0.675,2.535-2.522,2.535c-15.329,0-30.663,0-45.995,0c-1.803,0-2.206-0.289-2.738-1.97c0-2.626,0-5.253,0-7.879
					c0.533-1.681,0.935-1.97,2.736-1.97c0.408,0,0.815,0,1.267,0c0-0.373,0-0.655,0-0.938c0-5.225,0-10.451,0-15.677
					c0-10.779,0.006-21.558-0.008-32.337c-0.003-2.139,0.618-4.002,2.417-5.24C238.033,116.768,239.061,116.512,239.994,116.117z"/>
			</g>
			<g id="NCkLls.tif_2_">
				<g>
					<g>
						<path fill="#32CCC9" d="M256.488,142.121c-3.825,0-7.653,0.001-11.479,0c-1.584-0.001-2.322-0.731-2.325-2.33
							c-0.005-4.483-0.005-8.966,0-13.449c0.003-1.627,0.744-2.345,2.38-2.345c7.606-0.001,15.217-0.001,22.827,0
							c1.619,0,2.353,0.731,2.353,2.366c0.006,4.462,0.006,8.922,0,13.384c0,1.675-0.717,2.375-2.412,2.375
							C264.052,142.122,260.271,142.121,256.488,142.121z"/>
					</g>
					<g>
						<path fill="#32CCC9" d="M247.207,150.258c-0.83,0-1.658,0.012-2.488-0.003c-1.174-0.02-2.016-0.843-2.019-1.956
							c-0.003-1.11,0.833-1.956,2.01-1.972c1.681-0.023,3.361-0.025,5.043,0.001c1.159,0.018,2.013,0.903,1.992,1.995
							c-0.02,1.102-0.874,1.916-2.05,1.932C248.867,150.269,248.037,150.258,247.207,150.258z"/>
					</g>
				</g>
			</g>
			<g>
				<g>
					<ellipse fill="#32CCC9" cx="256.645" cy="171.184" rx="22.37" ry="0.776"/>
				</g>
			</g>
		</g>
		<g>
			<g>
				<path fill="#FFFFFF" d="M258.004,228.845c0,0.426-16.788,0.775-37.489,0.775c-20.708,0-37.487-0.349-37.487-0.775
					c0-0.431,16.78-0.78,37.487-0.78C241.217,228.064,258.004,228.414,258.004,228.845z"/>
			</g>
		</g>
		<g>
			<rect x="334.162" y="595.92" fill="#F5F5F5" width="9.101" height="36.241"/>
		</g>
		<g>
			<g>
				<rect x="13.148" y="11.727" fill="#E1E1E1" width="478.181" height="34.023"/>
			</g>
			<g>
				<g>
					<path fill="#1A2E35" d="M13.148,11.727c0,0,0.786-0.037,2.377-0.054c1.64-0.013,4.006-0.031,7.1-0.054
						c6.307-0.025,15.544-0.063,27.448-0.109c23.964-0.055,58.629-0.134,101.628-0.233c86.233-0.082,205.865-0.196,339.628-0.324
						l0.775-0.002v0.777c0,10.797,0,22.353,0,33.998v0.025v0.777h-0.775c-219.487-0.231-406.612-0.43-478.181-0.504l-0.277-0.001
						l0.003-0.272c0.07-11.269,0.122-19.789,0.157-25.538c0.026-2.804,0.05-4.922,0.065-6.386
						C13.113,12.412,13.148,11.727,13.148,11.727s0.032,0.751,0.052,2.196c0.015,1.477,0.035,3.617,0.064,6.446
						c0.035,5.714,0.087,14.18,0.154,25.381l-0.27-0.273c71.568-0.076,258.694-0.272,478.181-0.504l-0.775,0.777v-0.025
						c0-11.646,0-23.201,0-33.998l0.775,0.774c-133.541-0.128-252.969-0.243-339.058-0.326
						c-43.078-0.098-77.803-0.178-101.811-0.232c-11.979-0.048-21.279-0.084-27.626-0.109c-3.137-0.023-5.538-0.042-7.201-0.054
						C14.006,11.763,13.148,11.727,13.148,11.727z"/>
				</g>
			</g>
		</g>
		<g>
			<g>
				<polygon fill="#E1E1E1" points="72.918,76.384 13.148,45.75 491.329,45.75 431.556,76.384 				"/>
			</g>
			<g>
				<g>
					<path fill="#1A2E35" d="M72.918,76.384c0,0,0.603-0.044,1.768-0.064c1.206-0.015,2.928-0.037,5.18-0.063
						c4.597-0.029,11.321-0.07,20.019-0.123c17.491-0.051,42.897-0.125,74.765-0.22c63.787-0.07,153.404-0.168,256.906-0.279
						l-0.345,0.081c19.088-9.787,39.201-20.104,59.763-30.653l0.354,1.457c-19.11,0.003-39.281,0.004-59.751,0.007
						c-179.396-0.166-336.015-0.312-418.43-0.387l0.177-0.736c19.209,9.937,34.102,17.64,44.235,22.88
						c5.019,2.622,8.85,4.622,11.472,5.991c1.261,0.673,2.226,1.186,2.913,1.551C72.598,76.18,72.918,76.384,72.918,76.384
						s-0.338-0.136-0.997-0.455c-0.696-0.342-1.669-0.822-2.942-1.449c-2.636-1.328-6.491-3.265-11.54-5.802
						c-10.187-5.172-25.155-12.774-44.47-22.582l-1.448-0.734l1.626-0.001c82.415-0.078,239.034-0.222,418.43-0.388
						c20.47,0.001,40.641,0.004,59.751,0.006h3.193l-2.843,1.457c-20.573,10.536-40.693,20.839-59.78,30.615l-0.163,0.083h-0.18
						c-103.565-0.114-193.238-0.211-257.066-0.282c-31.844-0.093-57.236-0.167-74.715-0.22c-8.678-0.052-15.385-0.093-19.97-0.122
						c-2.237-0.027-3.951-0.048-5.148-0.062C73.5,76.427,72.918,76.384,72.918,76.384z"/>
				</g>
			</g>
		</g>
		<g>
			<path fill="#FFFFFF" d="M287.055,221.312v15.44h-4.369v-12.066h-2.868v-3.374H287.055z"/>
			<path fill="#FFFFFF" d="M293.54,232.673c0.472,0.454,0.704,1.049,0.704,1.788c0,0.338-0.04,0.676-0.128,1.015
				c-0.092,0.337-0.29,0.844-0.6,1.521l-1.386,3.222h-2.628l1.035-3.595c-0.412-0.192-0.733-0.477-0.96-0.85
				c-0.228-0.379-0.338-0.815-0.338-1.312c0-0.739,0.232-1.334,0.704-1.788c0.473-0.455,1.074-0.688,1.807-0.688
				C292.473,231.985,293.067,232.219,293.54,232.673z"/>
			<path fill="#FFFFFF" d="M306.515,222.967c1.275,1.305,1.917,3.193,1.917,5.645c0,1.766-0.345,3.286-1.026,4.557
				c-0.681,1.271-1.648,2.237-2.889,2.901c-1.241,0.665-2.681,0.991-4.312,0.991c-0.869,0-1.702-0.099-2.494-0.297
				c-0.794-0.198-1.474-0.472-2.034-0.827l1.591-3.129c0.752,0.524,1.702,0.792,2.849,0.792c1.102,0,1.994-0.302,2.682-0.915
				c0.681-0.611,1.083-1.498,1.199-2.662c-0.879,0.751-2.039,1.13-3.46,1.13c-0.974,0-1.866-0.204-2.674-0.611
				c-0.813-0.402-1.452-0.973-1.93-1.719c-0.478-0.739-0.717-1.591-0.717-2.546c0-1.049,0.268-1.97,0.804-2.774
				c0.537-0.798,1.266-1.415,2.186-1.852c0.92-0.432,1.94-0.647,3.059-0.647C303.485,221.003,305.233,221.655,306.515,222.967z
				 M303.119,227.476c0.396-0.361,0.594-0.833,0.594-1.421c0-0.577-0.198-1.043-0.589-1.404c-0.385-0.355-0.914-0.536-1.573-0.536
				c-0.617,0-1.124,0.175-1.515,0.524c-0.391,0.355-0.583,0.833-0.583,1.439c0,0.588,0.192,1.054,0.583,1.41
				s0.903,0.531,1.539,0.531C302.204,228.018,302.715,227.837,303.119,227.476z"/>
			<path fill="#FFFFFF" d="M320.51,228.263c1.037,0.88,1.555,2.057,1.555,3.524c0,0.962-0.244,1.836-0.739,2.64
				c-0.489,0.804-1.241,1.439-2.248,1.917c-1.009,0.478-2.255,0.717-3.741,0.717c-1.084,0-2.161-0.128-3.229-0.396
				c-1.066-0.263-1.986-0.641-2.75-1.125l1.567-3.287c0.618,0.414,1.299,0.728,2.039,0.95c0.746,0.221,1.492,0.331,2.243,0.331
				c0.746,0,1.346-0.145,1.795-0.43c0.449-0.292,0.676-0.688,0.676-1.207c0-0.513-0.221-0.903-0.665-1.165
				c-0.441-0.268-1.217-0.402-2.335-0.402h-4.195l0.775-9.019h9.841v3.374h-6.224l-0.197,2.249h1.037
				C317.876,226.934,319.473,227.376,320.51,228.263z"/>
		</g>
		<g>
			<g>
				<path fill="#FFFFFF" d="M258.004,261.975c0,0.425-16.788,0.774-37.489,0.774c-20.708,0-37.487-0.349-37.487-0.774
					c0-0.432,16.78-0.781,37.487-0.781C241.217,261.194,258.004,261.543,258.004,261.975z"/>
			</g>
		</g>
		<g>
			<path fill="#FFFFFF" d="M287.055,254.44v15.446h-4.369v-12.072h-2.868v-3.374H287.055z"/>
			<path fill="#FFFFFF" d="M293.54,265.802c0.472,0.455,0.704,1.054,0.704,1.788c0,0.338-0.04,0.677-0.128,1.014
				c-0.092,0.338-0.29,0.845-0.6,1.521l-1.386,3.222h-2.628l1.035-3.595c-0.412-0.192-0.733-0.478-0.96-0.851
				c-0.228-0.373-0.338-0.81-0.338-1.312c0-0.734,0.232-1.333,0.704-1.788c0.473-0.454,1.074-0.682,1.807-0.682
				C292.473,265.121,293.067,265.348,293.54,265.802z"/>
			<path fill="#FFFFFF" d="M308.589,263.268c0.378,0.6,0.57,1.293,0.57,2.074c0,0.967-0.279,1.824-0.838,2.558
				c-0.561,0.734-1.348,1.299-2.36,1.696c-1.014,0.401-2.186,0.6-3.508,0.6s-2.493-0.198-3.507-0.6
				c-1.014-0.396-1.8-0.962-2.36-1.696c-0.56-0.734-0.839-1.59-0.839-2.558c0-0.781,0.192-1.474,0.571-2.074
				c0.385-0.606,0.926-1.113,1.631-1.526c-0.524-0.367-0.937-0.816-1.225-1.346c-0.283-0.53-0.429-1.113-0.429-1.765
				c0-0.898,0.262-1.684,0.773-2.371c0.513-0.682,1.241-1.206,2.174-1.574c0.932-0.366,2.005-0.554,3.21-0.554
				c1.206,0,2.272,0.188,3.211,0.554c0.932,0.368,1.654,0.892,2.173,1.574c0.513,0.688,0.769,1.473,0.769,2.371
				c0,0.652-0.139,1.235-0.426,1.765c-0.291,0.53-0.698,0.979-1.229,1.346C307.662,262.155,308.205,262.662,308.589,263.268z
				 M304.143,266.606c0.414-0.344,0.623-0.81,0.623-1.399c0-0.588-0.209-1.055-0.623-1.404c-0.42-0.344-0.984-0.519-1.689-0.519
				c-0.704,0-1.269,0.175-1.69,0.519c-0.418,0.349-0.628,0.815-0.628,1.404c0,0.589,0.21,1.055,0.628,1.399
				c0.422,0.349,0.986,0.519,1.69,0.519C303.159,267.125,303.723,266.956,304.143,266.606z M301.131,257.628
				c-0.337,0.285-0.508,0.687-0.508,1.206c0,0.495,0.165,0.891,0.496,1.176c0.332,0.286,0.774,0.431,1.334,0.431
				c0.561,0,1.008-0.145,1.347-0.431c0.337-0.285,0.506-0.682,0.506-1.176c0-0.519-0.169-0.921-0.506-1.206
				c-0.339-0.286-0.786-0.432-1.347-0.432C301.907,257.196,301.469,257.342,301.131,257.628z"/>
			<path fill="#FFFFFF" d="M321.173,261.392c1.037,0.879,1.556,2.057,1.556,3.531c0,0.955-0.25,1.834-0.739,2.632
				c-0.494,0.805-1.241,1.446-2.249,1.923c-1.008,0.479-2.254,0.717-3.741,0.717c-1.089,0-2.167-0.134-3.233-0.401
				c-1.066-0.262-1.98-0.635-2.743-1.125l1.566-3.286c0.618,0.414,1.295,0.728,2.04,0.949c0.739,0.222,1.485,0.333,2.236,0.333
				c0.752,0,1.353-0.146,1.801-0.432c0.448-0.285,0.67-0.688,0.67-1.2c0-0.518-0.222-0.909-0.658-1.171
				c-0.443-0.267-1.224-0.396-2.342-0.396h-4.189l0.769-9.025h9.841v3.374h-6.222l-0.198,2.255h1.037
				C318.535,260.069,320.136,260.506,321.173,261.392z"/>
		</g>
	</g>
</g>
</svg>
