<svg width="359.69374999999997px" height="131.6px" xmlns="http://www.w3.org/2000/svg" viewBox="70.15312500000002 9.200000000000003 359.69374999999997 131.6" preserveAspectRatio="xMidYMid"><defs><linearGradient id="editing-gradient-gradient" x1="0" x2="1" y1="0.5" y2="0.5" gradientUnits="objectBoundingBox"><stop offset="0" stop-color="#3da2db"></stop><stop offset="1" stop-color="#b8b9bb"></stop></linearGradient></defs><g><g transform="translate(125.13997793197632, 98.04205894470215)"><path d="M56.88-41.34L56.88 0L48.69 0L48.69-26.69L34.28-1.34L34.28-1.34Q33.75-0.38 32.80 0.13L32.80 0.13L32.80 0.13Q31.84 0.63 30.75 0.63L30.75 0.63L30.75 0.63Q29.69 0.63 28.77 0.13L28.77 0.13L28.77 0.13Q27.84-0.38 27.31-1.34L27.31-1.34L12.84-26.69L12.84 0L4.72 0L4.72-41.34L4.72-41.34Q4.72-42.75 5.55-43.84L5.55-43.84L5.55-43.84Q6.38-44.94 7.72-45.31L7.72-45.31L7.72-45.31Q8.38-45.47 9.03-45.42L9.03-45.42L9.03-45.42Q9.69-45.38 10.30-45.14L10.30-45.14L10.30-45.14Q10.91-44.91 11.41-44.48L11.41-44.48L11.41-44.48Q11.91-44.06 12.25-43.47L12.25-43.47L30.75-11.31L49.25-43.47L49.25-43.47Q49.97-44.66 51.23-45.16L51.23-45.16L51.23-45.16Q52.50-45.66 53.88-45.31L53.88-45.31L53.88-45.31Q55.19-44.94 56.03-43.84L56.03-43.84L56.03-43.84Q56.88-42.75 56.88-41.34L56.88-41.34ZM110.28-40.72L110.28 0L102.16 0L102.16-11L73.59-11L73.59 0L65.47 0L65.47-22.41L65.47-22.41Q65.47-27.31 67.16-31.44L67.16-31.44L67.16-31.44Q68.84-35.56 71.84-38.53L71.84-38.53L71.84-38.53Q74.84-41.50 78.94-43.16L78.94-43.16L78.94-43.16Q83.03-44.81 87.88-44.81L87.88-44.81L106.19-44.81L106.19-44.81Q107.03-44.81 107.78-44.50L107.78-44.50L107.78-44.50Q108.53-44.19 109.09-43.63L109.09-43.63L109.09-43.63Q109.66-43.06 109.97-42.31L109.97-42.31L109.97-42.31Q110.28-41.56 110.28-40.72L110.28-40.72ZM73.59-22.41L73.59-19.13L102.16-19.13L102.16-36.69L87.88-36.69L87.88-36.69Q87.50-36.69 86.30-36.58L86.30-36.58L86.30-36.58Q85.09-36.47 83.52-36.03L83.52-36.03L83.52-36.03Q81.94-35.59 80.19-34.69L80.19-34.69L80.19-34.69Q78.44-33.78 76.97-32.19L76.97-32.19L76.97-32.19Q75.50-30.59 74.55-28.20L74.55-28.20L74.55-28.20Q73.59-25.81 73.59-22.41L73.59-22.41ZM164.50-34.94L164.50-29.75L164.50-29.75Q164.50-26.97 163.81-24.78L163.81-24.78L163.81-24.78Q163.13-22.59 161.95-20.92L161.95-20.92L161.95-20.92Q160.78-19.25 159.25-18.06L159.25-18.06L159.25-18.06Q157.72-16.88 156.05-16.11L156.05-16.11L156.05-16.11Q154.38-15.34 152.67-15L152.67-15L152.67-15Q150.97-14.66 149.47-14.66L149.47-14.66L166.44 0L153.88 0L136.94-14.66L131.09-14.66L131.09-22.78L149.47-22.78L149.47-22.78Q151-22.91 152.27-23.42L152.27-23.42L152.27-23.42Q153.53-23.94 154.45-24.81L154.45-24.81L154.45-24.81Q155.38-25.69 155.88-26.92L155.88-26.92L155.88-26.92Q156.38-28.16 156.38-29.75L156.38-29.75L156.38-34.88L156.38-34.88Q156.38-35.56 156.20-35.92L156.20-35.92L156.20-35.92Q156.03-36.28 155.77-36.45L155.77-36.45L155.77-36.45Q155.50-36.63 155.20-36.66L155.20-36.66L155.20-36.66Q154.91-36.69 154.66-36.69L154.66-36.69L127.84-36.69L127.84 0L119.72 0L119.72-40.72L119.72-40.72Q119.72-41.56 120.03-42.31L120.03-42.31L120.03-42.31Q120.34-43.06 120.89-43.63L120.89-43.63L120.89-43.63Q121.44-44.19 122.19-44.50L122.19-44.50L122.19-44.50Q122.94-44.81 123.81-44.81L123.81-44.81L154.66-44.81L154.66-44.81Q157.38-44.81 159.25-43.83L159.25-43.83L159.25-43.83Q161.13-42.84 162.30-41.36L162.30-41.36L162.30-41.36Q163.47-39.88 163.98-38.16L163.98-38.16L163.98-38.16Q164.50-36.44 164.50-34.94L164.50-34.94ZM221.63-44.81L229.88-44.81L222.38-2.81L222.38-2.81Q222.13-1.56 221.25-0.66L221.25-0.66L221.25-0.66Q220.38 0.25 219.13 0.50L219.13 0.50L219.13 0.50Q217.84 0.72 216.70 0.22L216.70 0.22L216.70 0.22Q215.56-0.28 214.91-1.34L214.91-1.34L200.03-25.78L185.13-1.34L185.13-1.34Q184.59-0.44 183.67 0.06L183.67 0.06L183.67 0.06Q182.75 0.56 181.69 0.56L181.69 0.56L181.69 0.56Q180.22 0.56 179.09-0.38L179.09-0.38L179.09-0.38Q177.97-1.31 177.72-2.81L177.72-2.81L170.16-44.81L178.41-44.81L183.78-15.22L196.59-35.66L196.59-35.66Q197.13-36.56 198.05-37.06L198.05-37.06L198.05-37.06Q198.97-37.56 200.03-37.56L200.03-37.56L200.03-37.56Q201.09-37.56 202-37.06L202-37.06L202-37.06Q202.91-36.56 203.50-35.66L203.50-35.66L216.25-15.22L221.63-44.81ZM245-44.81L245 0L236.88 0L236.88-44.81L245-44.81Z" fill="url(#editing-gradient-gradient)"></path></g></g><style>text {
  font-size: 64px;
  font-family: Arial Black;
  dominant-baseline: central;
  text-anchor: middle;
}</style></svg>