<svg width="500" height="158" viewBox="0 0 500 158" fill="none" xmlns="http://www.w3.org/2000/svg">
<g clip-path="url(#clip0_1_2)">
<path d="M127.465 45.908V120.672H112.642V72.4027L86.5616 118.248C85.9222 119.406 85.0293 120.292 83.883 120.907C82.7247 121.51 81.488 121.811 80.1728 121.811C78.8938 121.811 77.6993 121.51 76.5892 120.907C75.4671 120.292 74.5863 119.406 73.9468 118.248L47.758 72.4027V120.672H33.0618V45.908C33.0618 44.208 33.5625 42.7009 34.564 41.3867C35.5655 40.0605 36.8746 39.1743 38.4914 38.7282C39.2878 38.5353 40.0781 38.469 40.8624 38.5293C41.6587 38.5775 42.4249 38.7463 43.1609 39.0356C43.8969 39.313 44.5666 39.7108 45.1698 40.2293C45.7731 40.7356 46.2799 41.3445 46.6901 42.0559L80.1728 100.218L113.655 42.0559C114.524 40.6211 115.719 39.6023 117.239 38.9995C118.771 38.3966 120.37 38.3062 122.035 38.7282C123.616 39.1743 124.913 40.0605 125.926 41.3867C126.952 42.7009 127.465 44.208 127.465 45.908ZM224.112 47.0293V120.672H209.416V100.778H157.708V120.672H143.012V80.1431C143.012 74.2353 144.031 68.7917 146.07 63.8122C148.097 58.8449 150.921 54.5708 154.54 50.9899C158.16 47.4091 162.444 44.6179 167.391 42.6165C172.325 40.6271 177.719 39.6325 183.571 39.6325H216.71C217.723 39.6325 218.682 39.8193 219.587 40.1931C220.492 40.5669 221.283 41.0913 221.958 41.7665C222.646 42.4537 223.177 43.2495 223.551 44.1537C223.925 45.058 224.112 46.0165 224.112 47.0293ZM157.708 80.1431V86.075H209.416V54.3176H183.571C183.112 54.3176 182.159 54.3839 180.711 54.5165C179.251 54.6491 177.574 54.9807 175.68 55.5112C173.773 56.0417 171.764 56.8495 169.653 57.9346C167.541 59.0317 165.599 60.5388 163.825 62.4559C162.051 64.3849 160.591 66.7903 159.445 69.6718C158.287 72.5534 157.708 76.0438 157.708 80.1431ZM322.243 57.4825V66.8686C322.243 70.2204 321.827 73.2165 320.994 75.8569C320.174 78.4973 319.052 80.8243 317.628 82.8378C316.216 84.8512 314.588 86.5754 312.741 88.0101C310.895 89.4328 308.965 90.6083 306.95 91.5367C304.935 92.4651 302.896 93.1342 300.833 93.5442C298.781 93.9541 296.851 94.159 295.041 94.159L325.754 120.672H303.022L272.363 94.159H261.775V79.4739H295.041C296.887 79.3172 298.576 78.9314 300.109 78.3165C301.629 77.6895 302.944 76.8516 304.054 75.8027C305.176 74.7417 306.039 73.4697 306.642 71.9867C307.245 70.4917 307.547 68.7856 307.547 66.8686V57.591C307.547 56.7711 307.439 56.1442 307.221 55.7101C307.016 55.2761 306.757 54.9566 306.443 54.7516C306.117 54.5346 305.773 54.408 305.411 54.3718C305.062 54.3356 304.736 54.3176 304.434 54.3176H255.893V120.672H241.197V47.0293C241.197 46.0165 241.384 45.058 241.758 44.1537C242.132 43.2495 242.651 42.4537 243.315 41.7665C243.978 41.0913 244.763 40.5669 245.668 40.1931C246.573 39.8193 247.55 39.6325 248.6 39.6325H304.434C307.716 39.6325 310.485 40.2232 312.741 41.4048C315.01 42.5984 316.85 44.0874 318.262 45.8718C319.673 47.6562 320.687 49.5853 321.302 51.659C321.93 53.7328 322.243 55.6739 322.243 57.4825ZM425.641 39.6325H440.573L426.999 115.59C426.697 117.097 426.015 118.393 424.954 119.478C423.904 120.575 422.625 121.275 421.117 121.576C419.56 121.841 418.094 121.673 416.719 121.07C415.343 120.467 414.263 119.526 413.479 118.248L386.548 74.0484L359.581 118.248C358.929 119.334 358.049 120.177 356.939 120.78C355.829 121.383 354.634 121.685 353.355 121.685C351.581 121.685 350.013 121.118 348.649 119.985C347.298 118.863 346.471 117.398 346.17 115.59L332.487 39.6325H347.419L357.138 93.1463L380.322 56.1803C380.974 55.0952 381.854 54.2512 382.965 53.6484C384.075 53.0456 385.269 52.7442 386.548 52.7442C387.827 52.7442 389.016 53.0456 390.114 53.6484C391.212 54.2512 392.116 55.0952 392.828 56.1803L415.904 93.1463L425.641 39.6325ZM467.938 39.6325V120.672H453.242V39.6325H467.938Z" fill="url(#paint0_linear_1_2)"/>
</g>
<defs>
<linearGradient id="paint0_linear_1_2" x1="33.0618" y1="80.1394" x2="467.938" y2="80.1394" gradientUnits="userSpaceOnUse">
<stop offset="0.510417" stop-color="#3DA2DB"/>
<stop offset="1" stop-color="#1D1E1C"/>
</linearGradient>
<clipPath id="clip0_1_2">
<rect width="500" height="158" fill="white"/>
</clipPath>
</defs>
</svg>
